<?xml version="1.0" encoding="utf-8"?>
<!-- Generator: Adobe Illustrator 24.2.3, SVG Export Plug-In . SVG Version: 6.00 Build 0)  -->
<svg version="1.1" id="Ñëîé_1" xmlns="http://www.w3.org/2000/svg" xmlns:xlink="http://www.w3.org/1999/xlink" x="0px" y="0px"
	 viewBox="0 0 3000 2500" style="enable-background:new 0 0 3000 2500;" xml:space="preserve">
<circle style="fill:#004494;" cx="1500" cy="1720" r="325"/>
<g>
	<path style="fill:none;stroke:#004494;stroke-width:15;stroke-miterlimit:10;" d="M1125,1715c0-8.4,0.28-16.73,0.82-24.98"/>
	<path style="fill:none;stroke:#004494;stroke-width:15;stroke-miterlimit:10;stroke-dasharray:49.0497,49.0497;" d="
		M1132.22,1641.42C1166.41,1469.54,1318.08,1340,1500,1340c190.36,0,347.59,141.84,371.77,325.6"/>
	<path style="fill:none;stroke:#004494;stroke-width:15;stroke-miterlimit:10;" d="M1874.18,1690.02
		c0.54,8.26,0.82,16.59,0.82,24.98"/>
</g>
<polygon style="fill:#004494;" points="1500,2445 1598.68,2005 1401.32,2005 "/>
<line style="fill:none;stroke:#004494;stroke-width:15;stroke-miterlimit:10;" x1="1500" y1="985" x2="1500" y2="1285"/>
<g>
	<path style="fill:#F1F2F2;" d="M2391.42,929.83H608.58c-59.72,0-108.58-48.86-108.58-108.58V138.41
		c0-59.72,48.86-108.58,108.58-108.58h1782.83c59.72,0,108.58,48.86,108.58,108.58v682.83
		C2500,880.96,2451.14,929.83,2391.42,929.83z"/>
	<path style="fill:none;stroke:#004494;stroke-width:15;stroke-miterlimit:10;stroke-dasharray:50.1177,50.1177;" d="
		M2391.42,929.83H608.58c-59.72,0-108.58-48.86-108.58-108.58V138.41c0-59.72,48.86-108.58,108.58-108.58h1782.83
		c59.72,0,108.58,48.86,108.58,108.58v682.83C2500,880.96,2451.14,929.83,2391.42,929.83z"/>
</g>
</svg>
