<?xml version="1.0" encoding="utf-8"?>
<!-- Generator: Adobe Illustrator 24.2.3, SVG Export Plug-In . SVG Version: 6.00 Build 0)  -->
<svg version="1.1" id="Ñëîé_1" xmlns="http://www.w3.org/2000/svg" xmlns:xlink="http://www.w3.org/1999/xlink" x="0px" y="0px"
	 viewBox="0 0 3000 2500" style="enable-background:new 0 0 3000 2500;" xml:space="preserve">
<g>
	<g>
		<path d="M1274.29,298.51c-38.11,0-69.12-26.89-69.12-59.95v-81.13c0-33.05,31.01-59.94,69.12-59.94h468.96
			c38.11,0,69.12,26.89,69.12,59.94v81.13c0,33.05-31.01,59.95-69.12,59.95H1274.29z"/>
		<path style="fill:#003D66;" d="M1743.25,105c34.03,0,61.62,23.48,61.62,52.44v81.13c0,28.97-27.59,52.44-61.62,52.44h-468.96
			c-34.03,0-61.62-23.48-61.62-52.44v-81.13c0-28.96,27.59-52.44,61.62-52.44H1743.25 M1743.25,90h-468.96
			c-20.02,0-38.94,6.73-53.29,18.94c-15.04,12.8-23.33,30.03-23.33,48.51v81.13c0,18.48,8.28,35.71,23.33,48.51
			c14.35,12.21,33.27,18.94,53.29,18.94h468.96c20.02,0,38.94-6.73,53.29-18.94c15.04-12.8,23.32-30.03,23.32-48.51v-81.13
			c0-18.48-8.28-35.7-23.32-48.51C1782.2,96.73,1763.27,90,1743.25,90L1743.25,90z"/>
	</g>
	<g>
		<g>
			<path style="fill-rule:evenodd;clip-rule:evenodd;fill:#00796D;" d="M933.16,2069.97c-26.45,0-47.96-21.52-47.96-47.97v-472.17
				c0-26.43,21.52-47.94,47.96-47.94h154.4c26.42,0,47.91,21.5,47.91,47.94v472.17c0,26.45-21.49,47.97-47.91,47.97H933.16z"/>
			<path style="fill:#003D66;" d="M1087.56,1509.4c22.21,0,40.41,18.19,40.41,40.44v472.17c0,22.27-18.19,40.47-40.41,40.47h-154.4
				c-22.27,0-40.46-18.19-40.46-40.47v-472.17c0-22.24,18.19-40.44,40.46-40.44H1087.56 M1087.56,1494.4h-154.4
				c-30.58,0-55.46,24.87-55.46,55.44v472.17c0,30.58,24.88,55.47,55.46,55.47h154.4c30.55,0,55.41-24.88,55.41-55.47v-472.17
				C1142.97,1519.26,1118.11,1494.4,1087.56,1494.4L1087.56,1494.4z"/>
		</g>
		<g>
			<path style="fill-rule:evenodd;clip-rule:evenodd;fill:#00796D;" d="M1912.5,2069.97c-26.45,0-47.97-21.52-47.97-47.97v-472.17
				c0-26.43,21.52-47.94,47.97-47.94h154.4c26.42,0,47.91,21.5,47.91,47.94v472.17c0,26.45-21.49,47.97-47.91,47.97H1912.5z"/>
			<path style="fill:#003D66;" d="M2066.9,1509.4c22.21,0,40.41,18.19,40.41,40.44v472.17c0,22.27-18.19,40.47-40.41,40.47h-154.4
				c-22.27,0-40.47-18.19-40.47-40.47v-472.17c0-22.24,18.19-40.44,40.47-40.44H2066.9 M2066.9,1494.4h-154.4
				c-30.58,0-55.47,24.87-55.47,55.44v472.17c0,30.58,24.88,55.47,55.47,55.47h154.4c30.55,0,55.41-24.88,55.41-55.47v-472.17
				C2122.3,1519.26,2097.45,1494.4,2066.9,1494.4L2066.9,1494.4z"/>
		</g>
	</g>
	<g>
		<g>
			<path style="fill-rule:evenodd;clip-rule:evenodd;fill:#00796D;" d="M891.82,1061.02c-26.45,0-47.97-21.49-47.97-47.91V540.94
				c0-26.45,21.52-47.97,47.97-47.97h154.4c26.42,0,47.91,21.52,47.91,47.97v472.17c0,26.42-21.49,47.91-47.91,47.91H891.82z"/>
			<path style="fill:#003D66;" d="M1046.22,500.47c22.22,0,40.41,18.19,40.41,40.47v472.17c0,22.21-18.19,40.41-40.41,40.41h-154.4
				c-22.27,0-40.47-18.19-40.47-40.41V540.94c0-22.27,18.19-40.47,40.47-40.47H1046.22 M1046.22,485.47h-154.4
				c-30.58,0-55.47,24.88-55.47,55.47v472.17c0,30.55,24.88,55.41,55.47,55.41h154.4c30.55,0,55.41-24.86,55.41-55.41V540.94
				C1101.63,510.35,1076.77,485.47,1046.22,485.47L1046.22,485.47z"/>
		</g>
		<g>
			<path style="fill-rule:evenodd;clip-rule:evenodd;fill:#00796D;" d="M1953.78,1061.02c-26.42,0-47.91-21.49-47.91-47.91V540.94
				c0-26.45,21.49-47.97,47.91-47.97h154.4c26.45,0,47.97,21.52,47.97,47.97v472.17c0,26.42-21.52,47.91-47.97,47.91H1953.78z"/>
			<path style="fill:#003D66;" d="M2108.18,500.47c22.27,0,40.47,18.19,40.47,40.47v472.17c0,22.21-18.19,40.41-40.47,40.41h-154.4
				c-22.21,0-40.41-18.19-40.41-40.41V540.94c0-22.27,18.19-40.47,40.41-40.47H2108.18 M2108.18,485.47h-154.4
				c-30.55,0-55.41,24.88-55.41,55.47v472.17c0,30.55,24.86,55.41,55.41,55.41h154.4c30.58,0,55.47-24.86,55.47-55.41V540.94
				C2163.64,510.35,2138.76,485.47,2108.18,485.47L2108.18,485.47z"/>
		</g>
	</g>
	<g>
		<g>
			<path style="fill-rule:evenodd;clip-rule:evenodd;fill:#C0C2C3;" d="M1091.32,2392.5c-16.83,0-30.53-13.71-30.53-30.56v-92.21
				c0-16.85,13.7-30.56,30.53-30.56h238.25c16.87,0,30.59,13.71,30.59,30.56v92.21c0,16.85-13.72,30.56-30.59,30.56H1091.32z"/>
			<path style="fill:#003D66;" d="M1329.56,2246.66c12.71,0,23.09,10.38,23.09,23.06v92.21c0,12.68-10.38,23.06-23.09,23.06h-238.25
				c-12.65,0-23.03-10.38-23.03-23.06v-92.21c0-12.68,10.38-23.06,23.03-23.06H1329.56 M1329.56,2231.66h-238.25
				c-20.97,0-38.03,17.07-38.03,38.06v92.21c0,20.99,17.06,38.06,38.03,38.06h238.25c21,0,38.09-17.07,38.09-38.06v-92.21
				C1367.66,2248.74,1350.57,2231.66,1329.56,2231.66L1329.56,2231.66z"/>
		</g>
		<g>
			<path style="fill-rule:evenodd;clip-rule:evenodd;fill:#C0C2C3;" d="M1670.43,2392.5c-16.87,0-30.59-13.71-30.59-30.56v-92.21
				c0-16.85,13.72-30.56,30.59-30.56h238.19c16.87,0,30.59,13.71,30.59,30.56v92.21c0,16.85-13.72,30.56-30.59,30.56H1670.43z"/>
			<path style="fill:#003D66;" d="M1908.62,2246.66c12.71,0,23.09,10.38,23.09,23.06v92.21c0,12.68-10.38,23.06-23.09,23.06h-238.19
				c-12.71,0-23.09-10.38-23.09-23.06v-92.21c0-12.68,10.38-23.06,23.09-23.06H1908.62 M1908.62,2231.66h-238.19
				c-21,0-38.09,17.07-38.09,38.06v92.21c0,20.99,17.09,38.06,38.09,38.06h238.19c21,0,38.09-17.07,38.09-38.06v-92.21
				C1946.71,2248.74,1929.62,2231.66,1908.62,2231.66L1908.62,2231.66z"/>
		</g>
	</g>
	<g>
		<path style="fill-rule:evenodd;clip-rule:evenodd;fill:#FFD500;" d="M1136.54,2354.46c-64.6,0-99.62-9.04-120.88-31.2
			c-21.4-22.31-27.28-57.1-30.22-109.67L886.03,444.45c-1.59-28.3,9.41-55.8,31.83-79.52c17.71-18.74,42.03-34.39,70.32-45.26
			c28.8-11.07,61.16-16.92,93.56-16.92h836.54c32.4,0,64.74,5.85,93.52,16.91c28.26,10.86,52.56,26.5,70.28,45.22
			c22.45,23.73,33.48,51.24,31.91,79.57l-98.72,1769.14c-3.29,58.58-13.38,90.81-34.84,111.25
			c-22.08,21.04-55.78,29.62-116.32,29.62H1136.54z"/>
		<path style="fill:#003D66;" d="M1918.27,310.24c103.55,0,192.3,60.32,188.22,133.79l-98.72,1769.14
			c-5.89,104.93-32.94,133.79-143.67,133.79h-727.56c-122.09,0-137.96-32.45-143.61-133.79L893.51,444.03
			c-4.14-73.5,84.72-133.79,188.22-133.79H1918.27 M1918.27,295.24h-836.54c-33.31,0-66.59,6.02-96.25,17.42
			c-29.33,11.27-54.6,27.56-73.08,47.11c-23.87,25.25-35.58,54.68-33.87,85.09l99.41,1769.14c3.03,54.32,9.29,90.46,32.29,114.44
			c22.83,23.8,59.42,33.51,126.29,33.51h727.56c30.25,0,53.07-2.08,71.82-6.56c20.93-5,37.18-13.22,49.68-25.13
			c22.98-21.9,33.74-55.58,37.15-116.26l98.72-1769.14c1.69-30.44-10.05-59.88-33.95-85.14c-18.48-19.53-43.73-35.81-73.04-47.07
			C1984.85,301.26,1951.58,295.24,1918.27,295.24L1918.27,295.24z"/>
	</g>
	<g>
		<path style="fill-rule:evenodd;clip-rule:evenodd;fill:#004494;" d="M1200.49,1829.61c-60.36,0-93.14-6.17-113.15-21.29
			c-21.16-16-26.75-41.48-28.89-77.39L991.52,613.11c-1.36-22.69,3.12-47.4,12.94-71.44c9.58-23.44,24.02-45.8,41.78-64.64
			c34.94-37.09,78.77-57.52,123.39-57.52h682.88c48.22,0,86.46,30.35,110.05,55.81c42.73,46.12,65.86,105.24,63.53,135.75
			l-85.65,1119.98c-5.94,77.38-36.47,98.56-142.04,98.56H1200.49z"/>
		<path style="fill:#003D66;" d="M1852.51,427c96.87,0,169.95,133.16,166.1,183.49l-85.65,1119.98
			c-5.52,71.86-30.87,91.64-134.56,91.64h-597.91c-114.41,0-130.4-22.19-134.55-91.64L999,612.66
			C993.98,528.71,1072.76,427,1169.63,427H1852.51 M1852.51,412h-682.88c-24.22,0-48.14,5.67-71.12,16.86
			c-21.11,10.28-40.54,24.76-57.74,43.02c-18.38,19.51-33.34,42.66-43.26,66.95c-10.25,25.08-14.91,50.92-13.49,74.72l66.94,1117.81
			c2.28,38.05,8.4,65.19,31.86,82.93c21.43,16.2,55.52,22.81,117.67,22.81h597.91c58.04,0,90.69-6.25,112.67-21.56
			c12.24-8.53,21.09-19.94,27.05-34.88c5.09-12.76,8.21-28.35,9.8-49.05l85.65-1119.99c1.33-17.4-4.47-41.33-16.34-67.36
			c-12.15-26.65-29.61-52.95-49.17-74.06C1943.46,443.66,1903.44,412,1852.51,412L1852.51,412z"/>
	</g>
	<g>
		<path style="fill-rule:evenodd;clip-rule:evenodd;fill:#4DB4FC;" d="M1218.75,1773.29c-52.62,0-81.83-5.11-97.67-17.09
			c-15.52-11.74-19.61-31.65-21.43-62.07l-62.97-1051.61c-2.31-38.69,15.91-83.58,47.55-117.17
			c30.09-31.95,67.56-49.54,105.49-49.54h642.43c40.11,0,72.64,26.02,92.86,47.84c35.83,38.67,57.85,91.57,55.93,116.71
			l-80.58,1053.65c-2.6,33.87-9.98,52.08-25.47,62.87c-16.5,11.5-44.51,16.41-93.64,16.41H1218.75z"/>
		<path style="fill:#003D66;" d="M1832.15,483.32c37.41,0,68.15,24.71,87.36,45.44c16.35,17.64,30.95,39.65,41.12,61.96
			c8.89,19.51,13.69,37.86,12.83,49.08l-80.58,1053.64c-2.44,31.76-8.69,47.83-22.28,57.3c-15.15,10.56-41.87,15.06-89.35,15.06
			h-562.49c-50.18,0-78.9-4.8-93.14-15.57c-11.67-8.82-16.5-23.62-18.47-56.54l-62.97-1051.61c-2.19-36.69,15.25-79.45,45.52-111.58
			c28.66-30.43,64.19-47.18,100.03-47.18H1832.15 M1832.15,468.32h-642.43c-91.14,0-165.24,95.68-160.52,174.66l62.97,1051.61
			c3.91,65.33,18.95,86.21,126.58,86.21h562.49c97.55,0,121.4-18.6,126.59-86.21l80.58-1053.65
			C1992.03,593.59,1923.28,468.32,1832.15,468.32L1832.15,468.32z"/>
	</g>
	<g>
		<polygon style="fill-rule:evenodd;clip-rule:evenodd;fill:#004494;" points="1098.55,1772.84 1138.34,1799.65 1242.02,1561.67 
			1198.75,1542.81 		"/>
		<polygon style="fill-rule:evenodd;clip-rule:evenodd;fill:#004494;" points="1918.46,1771.71 1878.11,1797.26 1775.47,1561.67 
			1818.79,1542.81 		"/>
	</g>
	<g>
		<polygon style="fill-rule:evenodd;clip-rule:evenodd;fill:#004494;" points="1052.44,508.52 1093.46,484.4 1193.39,713.91 
			1150.13,732.77 		"/>
		<polygon style="fill-rule:evenodd;clip-rule:evenodd;fill:#004494;" points="1966.49,505.22 1926.14,479.67 1824.1,713.91 
			1867.37,732.77 		"/>
	</g>
	<rect x="1042.41" y="1167.74" style="fill-rule:evenodd;clip-rule:evenodd;fill:#004494;" width="924.55" height="51.86"/>
	<g>
		<path style="fill-rule:evenodd;clip-rule:evenodd;fill:#004494;" d="M1260.03,1637.42c-48.87,0-75.47-4.52-91.81-15.62
			c-17.76-12.05-22.42-31.04-24.18-57.77l-53.99-809.83c-2.08-30.94,12.22-66.02,38.23-93.84c28.93-30.93,67.89-48.67,106.91-48.67
			h550.83c33.88,0,68.47,17.35,97.42,48.85c27.54,29.98,46.09,68.76,44.1,92.22l-69.09,811.41c-2.61,30.67-10.74,47.6-28.06,58.44
			c-16.81,10.52-42.28,14.81-87.93,14.81H1260.03z"/>
		<path style="fill:#003D66;" d="M1786.03,619.19c78.19,0,137.14,96.5,134.05,132.94l-69.09,811.41
			c-4.43,52.07-24.9,66.38-108.51,66.38h-482.44c-92.24,0-105.19-16.06-108.51-66.38l-53.99-809.83
			c-4.08-60.82,59.47-134.52,137.66-134.52H1786.03 M1786.03,604.19H1235.2c-41.09,0-82.05,18.61-112.39,51.05
			c-13.18,14.09-23.82,30.38-30.79,47.12c-7.3,17.55-10.57,35.65-9.45,52.36l53.99,809.83c1.5,22.71,4.98,48.22,27.45,63.47
			c17.69,12.01,45.51,16.91,96.02,16.91h482.44c47.17,0,73.8-4.62,91.9-15.95c24.28-15.19,29.58-40.96,31.55-64.16l69.09-811.41
			c1.35-15.93-5.51-34.38-11.51-47.05c-8.48-17.93-20.43-35.53-34.54-50.89c-13.92-15.15-29.12-27.24-45.18-35.93
			C1824.96,609.35,1805.53,604.19,1786.03,604.19L1786.03,604.19z"/>
	</g>
</g>
</svg>
