<?xml version="1.0" encoding="utf-8"?>
<!-- Generator: Adobe Illustrator 24.2.3, SVG Export Plug-In . SVG Version: 6.00 Build 0)  -->
<svg version="1.1" xmlns="http://www.w3.org/2000/svg" xmlns:xlink="http://www.w3.org/1999/xlink" x="0px" y="0px"
	 viewBox="0 0 2420 1325.63" style="enable-background:new 0 0 2420 1325.63;" xml:space="preserve">
<g id="Layer_1">
	<g>
		<rect x="340.21" y="210.56" style="fill:none;stroke:#000000;stroke-miterlimit:10;" width="1920" height="1080"/>
		<line style="fill:none;stroke:#000000;stroke-miterlimit:10;" x1="340.21" y1="1192.37" x2="2260.21" y2="1192.37"/>
		<line style="fill:none;stroke:#000000;stroke-miterlimit:10;" x1="340.21" y1="1094.19" x2="2260.21" y2="1094.19"/>
		<line style="fill:none;stroke:#000000;stroke-miterlimit:10;" x1="340.21" y1="996.01" x2="2260.21" y2="996.01"/>
		<line style="fill:none;stroke:#000000;stroke-miterlimit:10;" x1="340.21" y1="897.83" x2="2260.21" y2="897.83"/>
		<line style="fill:none;stroke:#000000;stroke-miterlimit:10;" x1="340.21" y1="799.65" x2="2260.21" y2="799.65"/>
		<line style="fill:none;stroke:#000000;stroke-miterlimit:10;" x1="340.21" y1="701.46" x2="2260.21" y2="701.46"/>
		<line style="fill:none;stroke:#000000;stroke-miterlimit:10;" x1="340.21" y1="603.28" x2="2260.21" y2="603.28"/>
		<line style="fill:none;stroke:#000000;stroke-miterlimit:10;" x1="340.21" y1="505.1" x2="2260.21" y2="505.1"/>
		<line style="fill:none;stroke:#000000;stroke-miterlimit:10;" x1="340.21" y1="406.92" x2="2260.21" y2="406.92"/>
		<line style="fill:none;stroke:#000000;stroke-miterlimit:10;" x1="340.21" y1="308.74" x2="2260.21" y2="308.74"/>
		<line style="fill:none;stroke:#000000;stroke-miterlimit:10;" x1="2100.21" y1="210.56" x2="2100.21" y2="1290.56"/>
		<line style="fill:none;stroke:#000000;stroke-miterlimit:10;" x1="1940.21" y1="210.56" x2="1940.21" y2="1290.56"/>
		<line style="fill:none;stroke:#000000;stroke-miterlimit:10;" x1="1780.21" y1="210.56" x2="1780.21" y2="1290.56"/>
		<line style="fill:none;stroke:#000000;stroke-miterlimit:10;" x1="1620.21" y1="210.56" x2="1620.21" y2="1290.56"/>
		<line style="fill:none;stroke:#000000;stroke-miterlimit:10;" x1="1460.21" y1="210.56" x2="1460.21" y2="1290.56"/>
		<line style="fill:none;stroke:#000000;stroke-miterlimit:10;" x1="1300.21" y1="210.56" x2="1300.21" y2="1290.56"/>
		<line style="fill:none;stroke:#000000;stroke-miterlimit:10;" x1="1140.21" y1="210.56" x2="1140.21" y2="1290.56"/>
		<line style="fill:none;stroke:#000000;stroke-miterlimit:10;" x1="980.21" y1="210.56" x2="980.21" y2="1290.56"/>
		<line style="fill:none;stroke:#000000;stroke-miterlimit:10;" x1="820.21" y1="210.56" x2="820.21" y2="1290.56"/>
		<line style="fill:none;stroke:#000000;stroke-miterlimit:10;" x1="660.21" y1="210.56" x2="660.21" y2="1290.56"/>
		<line style="fill:none;stroke:#000000;stroke-miterlimit:10;" x1="500.21" y1="210.56" x2="500.21" y2="1290.56"/>
	</g>
</g>
<g id="Layer_2">
	<g>
		<path style="fill:none;stroke:#000000;stroke-width:50;stroke-miterlimit:10;" d="M2261.03,1259.36H346.21v0
			c-77.45,0-79-37.92-79-51.09l0,0c0-12.52,2.78-50.43,80.23-50.43h1919.81l1,0c77.45,0,78-37.92,78-51.09l0,0
			c0-12.52-2.78-50.43-80.23-50.43H339.21l-0.01,0c-77.45,0-79-37.92-79-51.09l0,0c0-12.52,2.78-50.43,80.23-50.43h1919.81v0
			c77.45,0,79-37.92,79-51.09l0,0c0-12.52-2.78-50.43-80.23-50.43H339.21v0c-77.45,0-79-37.92-79-51.09l0,0
			c0-12.52,2.78-50.43,80.23-50.43h1920.81l-1,0c77.45,0,79-37.92,79-51.09l0,0c0-12.52-2.78-50.43-80.23-50.43l-1921.81-0.9l1,0
			c-77.45,0-79-37.92-79-51.09l0,0c0-12.52,2.78-50.43,80.23-50.43h1919.81l1,0c77.45,0,78-37.92,78-51.09l0,0
			c0-12.52-2.78-50.43-80.23-50.43H337.21l1,0c-77.45,0-79-37.92-79-51.09l0,0c0-12.52,2.78-50.43,80.23-50.43h1919.81v0
			c77.45,0,79-37.92,79-51.09l0,0c0-12.52-2.78-50.43-80.23-50.43H339.21"/>
		<path style="fill:none;stroke:#FFD500;stroke-width:46;stroke-miterlimit:10;" d="M2261.03,1259.36H346.21v0
			c-77.45,0-79-37.92-79-51.09l0,0c0-12.52,2.78-50.43,80.23-50.43h1919.81l1,0c77.45,0,78-37.92,78-51.09l0,0
			c0-12.52-2.78-50.43-80.23-50.43H339.21l-0.01,0c-77.45,0-79-37.92-79-51.09l0,0c0-12.52,2.78-50.43,80.23-50.43h1919.81v0
			c77.45,0,79-37.92,79-51.09l0,0c0-12.52-2.78-50.43-80.23-50.43H339.21v0c-77.45,0-79-37.92-79-51.09l0,0
			c0-12.52,2.78-50.43,80.23-50.43h1920.81l-1,0c77.45,0,79-37.92,79-51.09l0,0c0-12.52-2.78-50.43-80.23-50.43l-1921.81-0.9l1,0
			c-77.45,0-79-37.92-79-51.09l0,0c0-12.52,2.78-50.43,80.23-50.43h1919.81l1,0c77.45,0,78-37.92,78-51.09l0,0
			c0-12.52-2.78-50.43-80.23-50.43H337.21l1,0c-77.45,0-79-37.92-79-51.09l0,0c0-12.52,2.78-50.43,80.23-50.43h1919.81v0
			c77.45,0,79-37.92,79-51.09l0,0c0-12.52-2.78-50.43-80.23-50.43H339.21"/>
		<path style="fill:none;stroke:#000000;stroke-width:42;stroke-miterlimit:10;" d="M2261.03,1259.36H346.21v0
			c-77.45,0-79-37.92-79-51.09l0,0c0-12.52,2.78-50.43,80.23-50.43h1919.81l1,0c77.45,0,78-37.92,78-51.09l0,0
			c0-12.52-2.78-50.43-80.23-50.43H339.21l-0.01,0c-77.45,0-79-37.92-79-51.09l0,0c0-12.52,2.78-50.43,80.23-50.43h1919.81v0
			c77.45,0,79-37.92,79-51.09l0,0c0-12.52-2.78-50.43-80.23-50.43H339.21v0c-77.45,0-79-37.92-79-51.09l0,0
			c0-12.52,2.78-50.43,80.23-50.43h1920.81l-1,0c77.45,0,79-37.92,79-51.09l0,0c0-12.52-2.78-50.43-80.23-50.43l-1921.81-0.9l1,0
			c-77.45,0-79-37.92-79-51.09l0,0c0-12.52,2.78-50.43,80.23-50.43h1919.81l1,0c77.45,0,78-37.92,78-51.09l0,0
			c0-12.52-2.78-50.43-80.23-50.43H337.21l1,0c-77.45,0-79-37.92-79-51.09l0,0c0-12.52,2.78-50.43,80.23-50.43h1919.81v0
			c77.45,0,79-37.92,79-51.09l0,0c0-12.52-2.78-50.43-80.23-50.43H339.21"/>
		<path style="fill:none;stroke:#FFFFFF;stroke-width:4;stroke-miterlimit:10;" d="M2261.03,1259.36H346.21v0
			c-77.45,0-79-37.92-79-51.09l0,0c0-12.52,2.78-50.43,80.23-50.43h1919.81l1,0c77.45,0,78-37.92,78-51.09l0,0
			c0-12.52-2.78-50.43-80.23-50.43H339.21l-0.01,0c-77.45,0-79-37.92-79-51.09l0,0c0-12.52,2.78-50.43,80.23-50.43h1919.81v0
			c77.45,0,79-37.92,79-51.09l0,0c0-12.52-2.78-50.43-80.23-50.43H339.21v0c-77.45,0-79-37.92-79-51.09l0,0
			c0-12.52,2.78-50.43,80.23-50.43h1920.81l-1,0c77.45,0,79-37.92,79-51.09l0,0c0-12.52-2.78-50.43-80.23-50.43l-1921.81-0.9l1,0
			c-77.45,0-79-37.92-79-51.09l0,0c0-12.52,2.78-50.43,80.23-50.43h1919.81l1,0c77.45,0,78-37.92,78-51.09l0,0
			c0-12.52-2.78-50.43-80.23-50.43H337.21l1,0c-77.45,0-79-37.92-79-51.09l0,0c0-12.52,2.78-50.43,80.23-50.43h1919.81v0
			c77.45,0,79-37.92,79-51.09l0,0c0-12.52-2.78-50.43-80.23-50.43H339.21"/>
	</g>
</g>
<g id="Layer_3">
	<text transform="matrix(1 0 0 1 73.7411 274.1673)" style="font-family:'Roboto-Regular'; font-size:50px;">2010</text>
	<text transform="matrix(1 0 0 1 73.7411 373.1676)" style="font-family:'Roboto-Regular'; font-size:50px;">2011</text>
	<text transform="matrix(1 0 0 1 73.7411 471.1676)" style="font-family:'Roboto-Regular'; font-size:50px;">2012</text>
	<text transform="matrix(1 0 0 1 73.7411 569.1675)" style="font-family:'Roboto-Regular'; font-size:50px;">2013</text>
	<text transform="matrix(1 0 0 1 73.7411 667.1675)" style="font-family:'Roboto-Regular'; font-size:50px;">2014</text>
	<text transform="matrix(1 0 0 1 73.7411 766.1675)" style="font-family:'Roboto-Regular'; font-size:50px;">2015</text>
	<text transform="matrix(1 0 0 1 73.7411 863.1675)" style="font-family:'Roboto-Regular'; font-size:50px;">2016</text>
	<text transform="matrix(1 0 0 1 73.7411 962.1675)" style="font-family:'Roboto-Regular'; font-size:50px;">2017</text>
	<text transform="matrix(1 0 0 1 73.7411 1060.1676)" style="font-family:'Roboto-Regular'; font-size:50px;">2018</text>
	<text transform="matrix(1 0 0 1 73.741 1158.1676)" style="font-family:'Roboto-Regular'; font-size:50px;">2019</text>
	<text transform="matrix(1 0 0 1 73.7408 1256.1678)" style="font-family:'Roboto-Regular'; font-size:50px;">2020</text>
	<text transform="matrix(1 0 0 1 406.6692 77.8452)" style="font-family:'Roboto-Regular'; font-size:50px;">1</text>
	<text transform="matrix(1 0 0 1 567.6691 77.8451)" style="font-family:'Roboto-Regular'; font-size:50px;">2</text>
	<text transform="matrix(1 0 0 1 722.4382 77.845)" style="font-family:'Roboto-Regular'; font-size:50px;">3</text>
	<text transform="matrix(1 0 0 1 887.6689 77.845)" style="font-family:'Roboto-Regular'; font-size:50px;">4</text>
	<text transform="matrix(1 0 0 1 1047.6694 77.845)" style="font-family:'Roboto-Regular'; font-size:50px;">5</text>
	<text transform="matrix(1 0 0 1 1206.6692 77.8454)" style="font-family:'Roboto-Regular'; font-size:50px;">6</text>
	<text transform="matrix(1 0 0 1 1366.6691 77.8453)" style="font-family:'Roboto-Regular'; font-size:50px;">7</text>
	<text transform="matrix(1 0 0 1 1527.6691 77.8453)" style="font-family:'Roboto-Regular'; font-size:50px;">8</text>
	<text transform="matrix(1 0 0 1 1686.6691 77.8452)" style="font-family:'Roboto-Regular'; font-size:50px;">9</text>
	<text transform="matrix(1 0 0 1 1831.631 77.8451)" style="font-family:'Roboto-Regular'; font-size:50px;">10</text>
	<text transform="matrix(1 0 0 1 1993.6307 77.8451)" style="font-family:'Roboto-Regular'; font-size:50px;">11</text>
	<text transform="matrix(1 0 0 1 2150.6313 77.845)" style="font-family:'Roboto-Regular'; font-size:50px;">12</text>
	<text transform="matrix(1 0 0 1 392.6311 137.8452)" style="font-family:'Roboto-Regular'; font-size:50px;">12</text>
	<text transform="matrix(1 0 0 1 553.631 137.8451)" style="font-family:'Roboto-Regular'; font-size:50px;">11</text>
	<text transform="matrix(1 0 0 1 708.4001 137.8451)" style="font-family:'Roboto-Regular'; font-size:50px;">10</text>
	<text transform="matrix(1 0 0 1 887.6689 137.8451)" style="font-family:'Roboto-Regular'; font-size:50px;">9</text>
	<text transform="matrix(1 0 0 1 1047.6694 137.845)" style="font-family:'Roboto-Regular'; font-size:50px;">8</text>
	<text transform="matrix(1 0 0 1 1206.6692 137.8454)" style="font-family:'Roboto-Regular'; font-size:50px;">7</text>
	<text transform="matrix(1 0 0 1 1366.6691 137.8453)" style="font-family:'Roboto-Regular'; font-size:50px;">6</text>
	<text transform="matrix(1 0 0 1 1527.6691 137.8452)" style="font-family:'Roboto-Regular'; font-size:50px;">5</text>
	<text transform="matrix(1 0 0 1 1686.6691 137.8452)" style="font-family:'Roboto-Regular'; font-size:50px;">4</text>
	<text transform="matrix(1 0 0 1 1845.6691 137.8451)" style="font-family:'Roboto-Regular'; font-size:50px;">3</text>
	<text transform="matrix(1 0 0 1 2007.6688 137.8451)" style="font-family:'Roboto-Regular'; font-size:50px;">2</text>
	<text transform="matrix(1 0 0 1 2164.6694 137.845)" style="font-family:'Roboto-Regular'; font-size:50px;">1</text>
</g>
<g id="Layer_4">
	<g>
		<path style="fill:#DD277E;" d="M2179.44,395.03l4.9-9.97h8.26l-8.39,14.88l8.61,15.12h-8.34l-5.05-10.16l-5.05,10.16h-8.32
			l8.59-15.12l-8.37-14.88h8.24L2179.44,395.03z"/>
	</g>
	<g>
		<path style="fill:#DD277E;" d="M1220.61,191.03l4.9-9.97h8.26l-8.39,14.88l8.61,15.12h-8.34l-5.05-10.16l-5.05,10.16h-8.32
			l8.59-15.12l-8.37-14.88h8.24L1220.61,191.03z"/>
	</g>
	<g>
		<path style="fill:#DD277E;" d="M2178.95,192.03l4.9-9.97h8.26l-8.39,14.88l8.61,15.12H2184l-5.05-10.16l-5.05,10.16h-8.32
			l8.59-15.12l-8.37-14.88h8.24L2178.95,192.03z"/>
	</g>
	<g>
		<path style="fill:#DD277E;" d="M2178.67,292.03l4.9-9.97h8.26l-8.39,14.88l8.61,15.12h-8.34l-5.05-10.16l-5.05,10.16h-8.32
			l8.59-15.12l-8.37-14.88h8.24L2178.67,292.03z"/>
	</g>
	<g>
		<path style="fill:#DD277E;" d="M1541.75,292.03l4.9-9.97h8.26l-8.39,14.88l8.61,15.12h-8.34l-5.05-10.16l-5.05,10.16h-8.32
			l8.59-15.12l-8.37-14.88h8.24L1541.75,292.03z"/>
	</g>
	<g>
		<path style="fill:#DD277E;" d="M736.13,395.03l4.9-9.97h8.26l-8.39,14.88l8.61,15.12h-8.34l-5.05-10.16l-5.05,10.16h-8.32
			l8.59-15.12l-8.37-14.88h8.24L736.13,395.03z"/>
	</g>
	<g>
		<path style="fill:#DD277E;" d="M1380.58,395.03l4.9-9.97h8.26l-8.39,14.88l8.61,15.12h-8.34l-5.05-10.16l-5.05,10.16h-8.32
			l8.59-15.12l-8.37-14.88h8.24L1380.58,395.03z"/>
	</g>
	<g>
		<path style="fill:#DD277E;" d="M1859.44,395.03l4.9-9.97h8.26l-8.39,14.88l8.61,15.12h-8.34l-5.05-10.16l-5.05,10.16h-8.32
			l8.59-15.12l-8.37-14.88h8.24L1859.44,395.03z"/>
	</g>
	<g>
		<path style="fill:#DD277E;" d="M2021.44,395.03l4.9-9.97h8.26l-8.39,14.88l8.61,15.12h-8.34l-5.05-10.16l-5.05,10.16h-8.32
			l8.59-15.12l-8.37-14.88h8.24L2021.44,395.03z"/>
	</g>
	<g>
		<path style="fill:#DD277E;" d="M2179.93,496.03l4.9-9.97h8.26l-8.39,14.88l8.61,15.12h-8.34l-5.05-10.16l-5.05,10.16h-8.32
			l8.59-15.12l-8.37-14.88h8.24L2179.93,496.03z"/>
	</g>
	<g>
		<path style="fill:#DD277E;" d="M1860.13,496.03l4.9-9.97h8.26l-8.39,14.88l8.61,15.12h-8.34l-5.05-10.16l-5.05,10.16h-8.32
			l8.59-15.12l-8.37-14.88h8.24L1860.13,496.03z"/>
	</g>
	<g>
		<path style="fill:#DD277E;" d="M1221.13,496.03l4.9-9.97h8.26l-8.39,14.88l8.61,15.12h-8.34l-5.05-10.16l-5.05,10.16h-8.32
			l8.59-15.12l-8.37-14.88h8.24L1221.13,496.03z"/>
	</g>
	<g>
		<path style="fill:#DD277E;" d="M420.3,496.03l4.9-9.97h8.26l-8.39,14.88l8.61,15.12h-8.34l-5.05-10.16l-5.05,10.16h-8.32
			l8.59-15.12l-8.37-14.88h8.24L420.3,496.03z"/>
	</g>
	<g>
		<path style="fill:#DD277E;" d="M901.84,597.03l4.9-9.97h8.26l-8.39,14.88l8.61,15.12h-8.34l-5.05-10.16l-5.05,10.16h-8.32
			l8.59-15.12l-8.37-14.88h8.24L901.84,597.03z"/>
	</g>
	<g>
		<path style="fill:#DD277E;" d="M1061.24,597.03l4.9-9.97h8.26l-8.39,14.88l8.61,15.12h-8.34l-5.05-10.16l-5.05,10.16h-8.32
			l8.59-15.12l-8.37-14.88h8.24L1061.24,597.03z"/>
	</g>
	<g>
		<path style="fill:#DD277E;" d="M1061.47,699.03l4.9-9.97h8.26l-8.39,14.88l8.61,15.12h-8.34l-5.05-10.16l-5.05,10.16h-8.32
			l8.59-15.12l-8.37-14.88h8.24L1061.47,699.03z"/>
	</g>
	<g>
		<path style="fill:#DD277E;" d="M420.47,698.03l4.9-9.97h8.26l-8.39,14.88l8.61,15.12h-8.34l-5.05-10.16l-5.05,10.16h-8.32
			l8.59-15.12l-8.37-14.88h8.24L420.47,698.03z"/>
	</g>
	<g>
		<path style="fill:#DD277E;" d="M736.9,801.03l4.9-9.97h8.26l-8.39,14.88l8.61,15.12h-8.34l-5.05-10.16l-5.05,10.16h-8.32
			l8.59-15.12l-8.37-14.88h8.24L736.9,801.03z"/>
	</g>
	<g>
		<path style="fill:#DD277E;" d="M1061.9,799.03l4.9-9.97h8.26l-8.39,14.88l8.61,15.12h-8.34l-5.05-10.16l-5.05,10.16h-8.32
			l8.59-15.12l-8.37-14.88h8.24L1061.9,799.03z"/>
	</g>
	<g>
		<path style="fill:#DD277E;" d="M1859.33,799.03l4.9-9.97h8.26l-8.39,14.88l8.61,15.12h-8.34l-5.05-10.16l-5.05,10.16h-8.32
			l8.59-15.12l-8.37-14.88h8.24L1859.33,799.03z"/>
	</g>
	<g>
		<path style="fill:#DD277E;" d="M1380.21,902.03l4.9-9.97h8.26l-8.39,14.88l8.61,15.12h-8.34l-5.05-10.16l-5.05,10.16h-8.32
			l8.59-15.12l-8.37-14.88h8.24L1380.21,902.03z"/>
	</g>
	<g>
		<path style="fill:#DD277E;" d="M1220.98,902.03l4.9-9.97h8.26l-8.39,14.88l8.61,15.12h-8.34l-5.05-10.16l-5.05,10.16h-8.32
			l8.59-15.12l-8.37-14.88h8.24L1220.98,902.03z"/>
	</g>
	<g>
		<path style="fill:#DD277E;" d="M736.98,902.03l4.9-9.97h8.26l-8.39,14.88l8.61,15.12h-8.34l-5.05-10.16l-5.05,10.16h-8.32
			l8.59-15.12l-8.37-14.88h8.24L736.98,902.03z"/>
	</g>
	<g>
		<path style="fill:#DD277E;" d="M1220.98,1005.03l4.9-9.97h8.26l-8.39,14.88l8.61,15.12h-8.34l-5.05-10.16l-5.05,10.16h-8.32
			l8.59-15.12l-8.37-14.88h8.24L1220.98,1005.03z"/>
	</g>
	<g>
		<path style="fill:#DD277E;" d="M1541.41,1005.03l4.9-9.97h8.26l-8.39,14.88l8.61,15.12h-8.34l-5.05-10.16l-5.05,10.16h-8.32
			l8.59-15.12l-8.37-14.88h8.24L1541.41,1005.03z"/>
	</g>
	<g>
		<path style="fill:#DD277E;" d="M2180.41,1005.03l4.9-9.97h8.26l-8.39,14.88l8.61,15.12h-8.34l-5.05-10.16l-5.05,10.16h-8.32
			l8.59-15.12l-8.37-14.88h8.24L2180.41,1005.03z"/>
	</g>
	<g>
		<path style="fill:#DD277E;" d="M1380.41,1105.03l4.9-9.97h8.26l-8.39,14.88l8.61,15.12h-8.34l-5.05-10.16l-5.05,10.16h-8.32
			l8.59-15.12l-8.37-14.88h8.24L1380.41,1105.03z"/>
	</g>
	<g>
		<path style="fill:#DD277E;" d="M723.41,1105.03l4.9-9.97h8.26l-8.39,14.88l8.61,15.12h-8.34l-5.05-10.16l-5.05,10.16h-8.32
			l8.59-15.12l-8.37-14.88h8.24L723.41,1105.03z"/>
	</g>
	<g>
		<path style="fill:#DD277E;" d="M750.41,1105.03l4.9-9.97h8.26l-8.39,14.88l8.61,15.12h-8.34l-5.05-10.16l-5.05,10.16h-8.32
			l8.59-15.12l-8.37-14.88h8.24L750.41,1105.03z"/>
	</g>
	<g>
		<path style="fill:#DD277E;" d="M420.41,1106.03l4.9-9.97h8.26l-8.39,14.88l8.61,15.12h-8.34l-5.05-10.16l-5.05,10.16h-8.32
			l8.59-15.12l-8.37-14.88h8.24L420.41,1106.03z"/>
	</g>
	<g>
		<path style="fill:#DD277E;" d="M736.41,1207.03l4.9-9.97h8.26l-8.39,14.88l8.61,15.12h-8.34l-5.05-10.16l-5.05,10.16h-8.32
			l8.59-15.12l-8.37-14.88h8.24L736.41,1207.03z"/>
	</g>
	<g>
		<path style="fill:#DD277E;" d="M901.33,1207.03l4.9-9.97h8.26l-8.39,14.88l8.61,15.12h-8.34l-5.05-10.16l-5.05,10.16h-8.32
			l8.59-15.12l-8.37-14.88h8.24L901.33,1207.03z"/>
	</g>
	<g>
		<path style="fill:#DD277E;" d="M1061.33,1207.03l4.9-9.97h8.26l-8.39,14.88l8.61,15.12h-8.34l-5.05-10.16l-5.05,10.16h-8.32
			l8.59-15.12l-8.37-14.88h8.24L1061.33,1207.03z"/>
	</g>
	<g>
		<path style="fill:#DD277E;" d="M1221.33,1207.03l4.9-9.97h8.26l-8.39,14.88l8.61,15.12h-8.34l-5.05-10.16l-5.05,10.16h-8.32
			l8.59-15.12l-8.37-14.88h8.24L1221.33,1207.03z"/>
	</g>
</g>
</svg>
