<?xml version="1.0" encoding="utf-8"?>
<!-- Generator: Adobe Illustrator 24.2.3, SVG Export Plug-In . SVG Version: 6.00 Build 0)  -->
<svg version="1.1" xmlns="http://www.w3.org/2000/svg" xmlns:xlink="http://www.w3.org/1999/xlink" x="0px" y="0px"
	 viewBox="0 0 1080 4925.56" style="enable-background:new 0 0 1080 4925.56;" xml:space="preserve">
<g id="Layer_3">
	<g>
		<rect x="32.5" y="44.78" style="fill:none;stroke:#000000;stroke-miterlimit:10;" width="200" height="4836"/>
		<line style="fill:none;stroke:#000000;stroke-miterlimit:10;" x1="32.5" y1="4842.4" x2="232.5" y2="4842.4"/>
		<line style="fill:none;stroke:#000000;stroke-miterlimit:10;" x1="32.5" y1="4804.02" x2="232.5" y2="4804.02"/>
		<line style="fill:none;stroke:#000000;stroke-miterlimit:10;" x1="32.5" y1="4765.63" x2="232.5" y2="4765.63"/>
		<line style="fill:none;stroke:#000000;stroke-miterlimit:10;" x1="32.5" y1="4727.25" x2="232.5" y2="4727.25"/>
		<line style="fill:none;stroke:#000000;stroke-miterlimit:10;" x1="32.5" y1="4688.87" x2="232.5" y2="4688.87"/>
		<line style="fill:none;stroke:#000000;stroke-miterlimit:10;" x1="32.5" y1="4650.49" x2="232.5" y2="4650.49"/>
		<line style="fill:none;stroke:#000000;stroke-miterlimit:10;" x1="32.5" y1="4612.11" x2="232.5" y2="4612.11"/>
		<line style="fill:none;stroke:#000000;stroke-miterlimit:10;" x1="32.5" y1="4573.73" x2="232.5" y2="4573.73"/>
		<line style="fill:none;stroke:#000000;stroke-miterlimit:10;" x1="32.5" y1="4535.35" x2="232.5" y2="4535.35"/>
		<line style="fill:none;stroke:#000000;stroke-miterlimit:10;" x1="32.5" y1="4496.97" x2="232.5" y2="4496.97"/>
		<line style="fill:none;stroke:#000000;stroke-miterlimit:10;" x1="32.5" y1="4458.59" x2="232.5" y2="4458.59"/>
		<line style="fill:none;stroke:#000000;stroke-miterlimit:10;" x1="32.5" y1="4420.21" x2="232.5" y2="4420.21"/>
		<line style="fill:none;stroke:#000000;stroke-miterlimit:10;" x1="32.5" y1="4381.83" x2="232.5" y2="4381.83"/>
		<line style="fill:none;stroke:#000000;stroke-miterlimit:10;" x1="32.5" y1="4343.44" x2="232.5" y2="4343.44"/>
		<line style="fill:none;stroke:#000000;stroke-miterlimit:10;" x1="32.5" y1="4305.06" x2="232.5" y2="4305.06"/>
		<line style="fill:none;stroke:#000000;stroke-miterlimit:10;" x1="32.5" y1="4266.68" x2="232.5" y2="4266.68"/>
		<line style="fill:none;stroke:#000000;stroke-miterlimit:10;" x1="32.5" y1="4228.3" x2="232.5" y2="4228.3"/>
		<line style="fill:none;stroke:#000000;stroke-miterlimit:10;" x1="32.5" y1="4189.92" x2="232.5" y2="4189.92"/>
		<line style="fill:none;stroke:#000000;stroke-miterlimit:10;" x1="32.5" y1="4151.54" x2="232.5" y2="4151.54"/>
		<line style="fill:none;stroke:#000000;stroke-miterlimit:10;" x1="32.5" y1="4113.16" x2="232.5" y2="4113.16"/>
		<line style="fill:none;stroke:#000000;stroke-miterlimit:10;" x1="32.5" y1="4074.78" x2="232.5" y2="4074.78"/>
		<line style="fill:none;stroke:#000000;stroke-miterlimit:10;" x1="32.5" y1="4036.4" x2="232.5" y2="4036.4"/>
		<line style="fill:none;stroke:#000000;stroke-miterlimit:10;" x1="32.5" y1="3998.02" x2="232.5" y2="3998.02"/>
		<line style="fill:none;stroke:#000000;stroke-miterlimit:10;" x1="32.5" y1="3959.64" x2="232.5" y2="3959.64"/>
		<line style="fill:none;stroke:#000000;stroke-miterlimit:10;" x1="32.5" y1="3921.25" x2="232.5" y2="3921.25"/>
		<line style="fill:none;stroke:#000000;stroke-miterlimit:10;" x1="32.5" y1="3882.87" x2="232.5" y2="3882.87"/>
		<line style="fill:none;stroke:#000000;stroke-miterlimit:10;" x1="32.5" y1="3844.49" x2="232.5" y2="3844.49"/>
		<line style="fill:none;stroke:#000000;stroke-miterlimit:10;" x1="32.5" y1="3806.11" x2="232.5" y2="3806.11"/>
		<line style="fill:none;stroke:#000000;stroke-miterlimit:10;" x1="32.5" y1="3767.73" x2="232.5" y2="3767.73"/>
		<line style="fill:none;stroke:#000000;stroke-miterlimit:10;" x1="32.5" y1="3729.35" x2="232.5" y2="3729.35"/>
		<line style="fill:none;stroke:#000000;stroke-miterlimit:10;" x1="32.5" y1="3690.97" x2="232.5" y2="3690.97"/>
		<line style="fill:none;stroke:#000000;stroke-miterlimit:10;" x1="32.5" y1="3652.59" x2="232.5" y2="3652.59"/>
		<line style="fill:none;stroke:#000000;stroke-miterlimit:10;" x1="32.5" y1="3614.21" x2="232.5" y2="3614.21"/>
		<line style="fill:none;stroke:#000000;stroke-miterlimit:10;" x1="32.5" y1="3575.83" x2="232.5" y2="3575.83"/>
		<line style="fill:none;stroke:#000000;stroke-miterlimit:10;" x1="32.5" y1="3537.44" x2="232.5" y2="3537.44"/>
		<line style="fill:none;stroke:#000000;stroke-miterlimit:10;" x1="32.5" y1="3499.06" x2="232.5" y2="3499.06"/>
		<line style="fill:none;stroke:#000000;stroke-miterlimit:10;" x1="32.5" y1="3460.68" x2="232.5" y2="3460.68"/>
		<line style="fill:none;stroke:#000000;stroke-miterlimit:10;" x1="32.5" y1="3422.3" x2="232.5" y2="3422.3"/>
		<line style="fill:none;stroke:#000000;stroke-miterlimit:10;" x1="32.5" y1="3383.92" x2="232.5" y2="3383.92"/>
		<line style="fill:none;stroke:#000000;stroke-miterlimit:10;" x1="32.5" y1="3345.54" x2="232.5" y2="3345.54"/>
		<line style="fill:none;stroke:#000000;stroke-miterlimit:10;" x1="32.5" y1="3307.16" x2="232.5" y2="3307.16"/>
		<line style="fill:none;stroke:#000000;stroke-miterlimit:10;" x1="32.5" y1="3268.78" x2="232.5" y2="3268.78"/>
		<line style="fill:none;stroke:#000000;stroke-miterlimit:10;" x1="32.5" y1="3230.4" x2="232.5" y2="3230.4"/>
		<line style="fill:none;stroke:#000000;stroke-miterlimit:10;" x1="32.5" y1="3192.02" x2="232.5" y2="3192.02"/>
		<line style="fill:none;stroke:#000000;stroke-miterlimit:10;" x1="32.5" y1="3153.64" x2="232.5" y2="3153.64"/>
		<line style="fill:none;stroke:#000000;stroke-miterlimit:10;" x1="32.5" y1="3115.25" x2="232.5" y2="3115.25"/>
		<line style="fill:none;stroke:#000000;stroke-miterlimit:10;" x1="32.5" y1="3076.87" x2="232.5" y2="3076.87"/>
		<line style="fill:none;stroke:#000000;stroke-miterlimit:10;" x1="32.5" y1="3038.49" x2="232.5" y2="3038.49"/>
		<line style="fill:none;stroke:#000000;stroke-miterlimit:10;" x1="32.5" y1="3000.11" x2="232.5" y2="3000.11"/>
		<line style="fill:none;stroke:#000000;stroke-miterlimit:10;" x1="32.5" y1="2961.73" x2="232.5" y2="2961.73"/>
		<line style="fill:none;stroke:#000000;stroke-miterlimit:10;" x1="32.5" y1="2923.35" x2="232.5" y2="2923.35"/>
		<line style="fill:none;stroke:#000000;stroke-miterlimit:10;" x1="32.5" y1="2884.97" x2="232.5" y2="2884.97"/>
		<line style="fill:none;stroke:#000000;stroke-miterlimit:10;" x1="32.5" y1="2846.59" x2="232.5" y2="2846.59"/>
		<line style="fill:none;stroke:#000000;stroke-miterlimit:10;" x1="32.5" y1="2808.21" x2="232.5" y2="2808.21"/>
		<line style="fill:none;stroke:#000000;stroke-miterlimit:10;" x1="32.5" y1="2769.83" x2="232.5" y2="2769.83"/>
		<line style="fill:none;stroke:#000000;stroke-miterlimit:10;" x1="32.5" y1="2731.44" x2="232.5" y2="2731.44"/>
		<line style="fill:none;stroke:#000000;stroke-miterlimit:10;" x1="32.5" y1="2693.06" x2="232.5" y2="2693.06"/>
		<line style="fill:none;stroke:#000000;stroke-miterlimit:10;" x1="32.5" y1="2654.68" x2="232.5" y2="2654.68"/>
		<line style="fill:none;stroke:#000000;stroke-miterlimit:10;" x1="32.5" y1="2616.3" x2="232.5" y2="2616.3"/>
		<line style="fill:none;stroke:#000000;stroke-miterlimit:10;" x1="32.5" y1="2577.92" x2="232.5" y2="2577.92"/>
		<line style="fill:none;stroke:#000000;stroke-miterlimit:10;" x1="32.5" y1="2539.54" x2="232.5" y2="2539.54"/>
		<line style="fill:none;stroke:#000000;stroke-miterlimit:10;" x1="32.5" y1="2501.16" x2="232.5" y2="2501.16"/>
		<line style="fill:none;stroke:#000000;stroke-miterlimit:10;" x1="32.5" y1="2462.78" x2="232.5" y2="2462.78"/>
		<line style="fill:none;stroke:#000000;stroke-miterlimit:10;" x1="32.5" y1="2424.4" x2="232.5" y2="2424.4"/>
		<line style="fill:none;stroke:#000000;stroke-miterlimit:10;" x1="32.5" y1="2386.02" x2="232.5" y2="2386.02"/>
		<line style="fill:none;stroke:#000000;stroke-miterlimit:10;" x1="32.5" y1="2347.64" x2="232.5" y2="2347.64"/>
		<line style="fill:none;stroke:#000000;stroke-miterlimit:10;" x1="32.5" y1="2309.25" x2="232.5" y2="2309.25"/>
		<line style="fill:none;stroke:#000000;stroke-miterlimit:10;" x1="32.5" y1="2270.87" x2="232.5" y2="2270.87"/>
		<line style="fill:none;stroke:#000000;stroke-miterlimit:10;" x1="32.5" y1="2232.49" x2="232.5" y2="2232.49"/>
		<line style="fill:none;stroke:#000000;stroke-miterlimit:10;" x1="32.5" y1="2194.11" x2="232.5" y2="2194.11"/>
		<line style="fill:none;stroke:#000000;stroke-miterlimit:10;" x1="32.5" y1="2155.73" x2="232.5" y2="2155.73"/>
		<line style="fill:none;stroke:#000000;stroke-miterlimit:10;" x1="32.5" y1="2117.35" x2="232.5" y2="2117.35"/>
		<line style="fill:none;stroke:#000000;stroke-miterlimit:10;" x1="32.5" y1="2078.97" x2="232.5" y2="2078.97"/>
		<line style="fill:none;stroke:#000000;stroke-miterlimit:10;" x1="32.5" y1="2040.59" x2="232.5" y2="2040.59"/>
		<line style="fill:none;stroke:#000000;stroke-miterlimit:10;" x1="32.5" y1="2002.21" x2="232.5" y2="2002.21"/>
		<line style="fill:none;stroke:#000000;stroke-miterlimit:10;" x1="32.5" y1="1963.83" x2="232.5" y2="1963.83"/>
		<line style="fill:none;stroke:#000000;stroke-miterlimit:10;" x1="32.5" y1="1925.44" x2="232.5" y2="1925.44"/>
		<line style="fill:none;stroke:#000000;stroke-miterlimit:10;" x1="32.5" y1="1887.06" x2="232.5" y2="1887.06"/>
		<line style="fill:none;stroke:#000000;stroke-miterlimit:10;" x1="32.5" y1="1848.68" x2="232.5" y2="1848.68"/>
		<line style="fill:none;stroke:#000000;stroke-miterlimit:10;" x1="32.5" y1="1810.3" x2="232.5" y2="1810.3"/>
		<line style="fill:none;stroke:#000000;stroke-miterlimit:10;" x1="32.5" y1="1771.92" x2="232.5" y2="1771.92"/>
		<line style="fill:none;stroke:#000000;stroke-miterlimit:10;" x1="32.5" y1="1733.54" x2="232.5" y2="1733.54"/>
		<line style="fill:none;stroke:#000000;stroke-miterlimit:10;" x1="32.5" y1="1695.16" x2="232.5" y2="1695.16"/>
		<line style="fill:none;stroke:#000000;stroke-miterlimit:10;" x1="32.5" y1="1656.78" x2="232.5" y2="1656.78"/>
		<line style="fill:none;stroke:#000000;stroke-miterlimit:10;" x1="32.5" y1="1618.4" x2="232.5" y2="1618.4"/>
		<line style="fill:none;stroke:#000000;stroke-miterlimit:10;" x1="32.5" y1="1580.02" x2="232.5" y2="1580.02"/>
		<line style="fill:none;stroke:#000000;stroke-miterlimit:10;" x1="32.5" y1="1541.63" x2="232.5" y2="1541.63"/>
		<line style="fill:none;stroke:#000000;stroke-miterlimit:10;" x1="32.5" y1="1503.25" x2="232.5" y2="1503.25"/>
		<line style="fill:none;stroke:#000000;stroke-miterlimit:10;" x1="32.5" y1="1464.87" x2="232.5" y2="1464.87"/>
		<line style="fill:none;stroke:#000000;stroke-miterlimit:10;" x1="32.5" y1="1426.49" x2="232.5" y2="1426.49"/>
		<line style="fill:none;stroke:#000000;stroke-miterlimit:10;" x1="32.5" y1="1388.11" x2="232.5" y2="1388.11"/>
		<line style="fill:none;stroke:#000000;stroke-miterlimit:10;" x1="32.5" y1="1349.73" x2="232.5" y2="1349.73"/>
		<line style="fill:none;stroke:#000000;stroke-miterlimit:10;" x1="32.5" y1="1311.35" x2="232.5" y2="1311.35"/>
		<line style="fill:none;stroke:#000000;stroke-miterlimit:10;" x1="32.5" y1="1272.97" x2="232.5" y2="1272.97"/>
		<line style="fill:none;stroke:#000000;stroke-miterlimit:10;" x1="32.5" y1="1234.59" x2="232.5" y2="1234.59"/>
		<line style="fill:none;stroke:#000000;stroke-miterlimit:10;" x1="32.5" y1="1196.21" x2="232.5" y2="1196.21"/>
		<line style="fill:none;stroke:#000000;stroke-miterlimit:10;" x1="32.5" y1="1157.83" x2="232.5" y2="1157.83"/>
		<line style="fill:none;stroke:#000000;stroke-miterlimit:10;" x1="32.5" y1="1119.44" x2="232.5" y2="1119.44"/>
		<line style="fill:none;stroke:#000000;stroke-miterlimit:10;" x1="32.5" y1="1081.06" x2="232.5" y2="1081.06"/>
		<line style="fill:none;stroke:#000000;stroke-miterlimit:10;" x1="32.5" y1="1042.68" x2="232.5" y2="1042.68"/>
		<line style="fill:none;stroke:#000000;stroke-miterlimit:10;" x1="32.5" y1="1004.3" x2="232.5" y2="1004.3"/>
		<line style="fill:none;stroke:#000000;stroke-miterlimit:10;" x1="32.5" y1="965.92" x2="232.5" y2="965.92"/>
		<line style="fill:none;stroke:#000000;stroke-miterlimit:10;" x1="32.5" y1="927.54" x2="232.5" y2="927.54"/>
		<line style="fill:none;stroke:#000000;stroke-miterlimit:10;" x1="32.5" y1="889.16" x2="232.5" y2="889.16"/>
		<line style="fill:none;stroke:#000000;stroke-miterlimit:10;" x1="32.5" y1="850.78" x2="232.5" y2="850.78"/>
		<line style="fill:none;stroke:#000000;stroke-miterlimit:10;" x1="32.5" y1="812.4" x2="232.5" y2="812.4"/>
		<line style="fill:none;stroke:#000000;stroke-miterlimit:10;" x1="32.5" y1="774.02" x2="232.5" y2="774.02"/>
		<line style="fill:none;stroke:#000000;stroke-miterlimit:10;" x1="32.5" y1="735.63" x2="232.5" y2="735.63"/>
		<line style="fill:none;stroke:#000000;stroke-miterlimit:10;" x1="32.5" y1="697.25" x2="232.5" y2="697.25"/>
		<line style="fill:none;stroke:#000000;stroke-miterlimit:10;" x1="32.5" y1="658.87" x2="232.5" y2="658.87"/>
		<line style="fill:none;stroke:#000000;stroke-miterlimit:10;" x1="32.5" y1="620.49" x2="232.5" y2="620.49"/>
		<line style="fill:none;stroke:#000000;stroke-miterlimit:10;" x1="32.5" y1="582.11" x2="232.5" y2="582.11"/>
		<line style="fill:none;stroke:#000000;stroke-miterlimit:10;" x1="32.5" y1="543.73" x2="232.5" y2="543.73"/>
		<line style="fill:none;stroke:#000000;stroke-miterlimit:10;" x1="32.5" y1="505.35" x2="232.5" y2="505.35"/>
		<line style="fill:none;stroke:#000000;stroke-miterlimit:10;" x1="32.5" y1="466.97" x2="232.5" y2="466.97"/>
		<line style="fill:none;stroke:#000000;stroke-miterlimit:10;" x1="32.5" y1="428.59" x2="232.5" y2="428.59"/>
		<line style="fill:none;stroke:#000000;stroke-miterlimit:10;" x1="32.5" y1="390.21" x2="232.5" y2="390.21"/>
		<line style="fill:none;stroke:#000000;stroke-miterlimit:10;" x1="32.5" y1="351.83" x2="232.5" y2="351.83"/>
		<line style="fill:none;stroke:#000000;stroke-miterlimit:10;" x1="32.5" y1="313.44" x2="232.5" y2="313.44"/>
		<line style="fill:none;stroke:#000000;stroke-miterlimit:10;" x1="32.5" y1="275.06" x2="232.5" y2="275.06"/>
		<line style="fill:none;stroke:#000000;stroke-miterlimit:10;" x1="32.5" y1="236.68" x2="232.5" y2="236.68"/>
		<line style="fill:none;stroke:#000000;stroke-miterlimit:10;" x1="32.5" y1="198.3" x2="232.5" y2="198.3"/>
		<line style="fill:none;stroke:#000000;stroke-miterlimit:10;" x1="32.5" y1="159.92" x2="232.5" y2="159.92"/>
		<line style="fill:none;stroke:#000000;stroke-miterlimit:10;" x1="32.5" y1="121.54" x2="232.5" y2="121.54"/>
		<line style="fill:none;stroke:#000000;stroke-miterlimit:10;" x1="32.5" y1="83.16" x2="232.5" y2="83.16"/>
	</g>
</g>
<g id="Layer_1">
	<g>
		<line style="fill:none;stroke:#000000;stroke-width:50;stroke-miterlimit:10;" x1="79" y1="4880.78" x2="79" y2="44.78"/>
		<line style="fill:none;stroke:#FFD500;stroke-width:46;stroke-miterlimit:10;" x1="79" y1="4880.78" x2="79" y2="44.78"/>
		<line style="fill:none;stroke:#000000;stroke-width:42;stroke-miterlimit:10;" x1="79" y1="4880.78" x2="79" y2="44.78"/>
		<line style="fill:none;stroke:#FFFFFF;stroke-width:4;stroke-miterlimit:10;" x1="79" y1="4880.78" x2="79" y2="44.78"/>
	</g>
</g>
<g id="Layer_2">
	<text transform="matrix(1 0 0 1 258.3344 83.978)" style="font-family:'Roboto-Regular'; font-size:30px;">01.2010</text>
	<text transform="matrix(1 0 0 1 258.3343 122.2387)" style="font-family:'Roboto-Regular'; font-size:30px;">02.2010</text>
	<text transform="matrix(1 0 0 1 258.3343 160.1859)" style="font-family:'Roboto-Regular'; font-size:30px;">03.2010</text>
	<text transform="matrix(1 0 0 1 258.3341 198.4466)" style="font-family:'Roboto-Regular'; font-size:30px;">04.2010</text>
	<text transform="matrix(1 0 0 1 258.334 236.9962)" style="font-family:'Roboto-Regular'; font-size:30px;">05.2010</text>
	<text transform="matrix(1 0 0 1 258.3344 275.2569)" style="font-family:'Roboto-Regular'; font-size:30px;">06.2010</text>
	<text transform="matrix(1 0 0 1 257.9012 313.4769)" style="font-family:'Roboto-Regular'; font-size:30px;">07.2010</text>
	<text transform="matrix(1 0 0 1 257.9011 351.7376)" style="font-family:'Roboto-Regular'; font-size:30px;">08.2010</text>
	<text transform="matrix(1 0 0 1 257.9011 389.6848)" style="font-family:'Roboto-Regular'; font-size:30px;">09.2010</text>
	<text transform="matrix(1 0 0 1 257.9009 427.9455)" style="font-family:'Roboto-Regular'; font-size:30px;">10.2010</text>
	<text transform="matrix(1 0 0 1 257.9009 466.4951)" style="font-family:'Roboto-Regular'; font-size:30px;">11.2010</text>
	<text transform="matrix(1 0 0 1 257.9012 504.7558)" style="font-family:'Roboto-Regular'; font-size:30px;">12.2010</text>
	<text transform="matrix(1 0 0 1 258.1178 544.0417)" style="font-family:'Roboto-Regular'; font-size:30px;">01.2011</text>
	<text transform="matrix(1 0 0 1 258.1177 582.3024)" style="font-family:'Roboto-Regular'; font-size:30px;">02.2011</text>
	<text transform="matrix(1 0 0 1 258.1177 620.2496)" style="font-family:'Roboto-Regular'; font-size:30px;">03.2011</text>
	<text transform="matrix(1 0 0 1 258.1175 658.5103)" style="font-family:'Roboto-Regular'; font-size:30px;">04.2011</text>
	<text transform="matrix(1 0 0 1 258.1174 697.0599)" style="font-family:'Roboto-Regular'; font-size:30px;">05.2011</text>
	<text transform="matrix(1 0 0 1 258.1177 735.3206)" style="font-family:'Roboto-Regular'; font-size:30px;">06.2011</text>
	<text transform="matrix(1 0 0 1 257.6846 773.5406)" style="font-family:'Roboto-Regular'; font-size:30px;">07.2011</text>
	<text transform="matrix(1 0 0 1 257.6845 811.8013)" style="font-family:'Roboto-Regular'; font-size:30px;">08.2011</text>
	<text transform="matrix(1 0 0 1 257.6845 849.7485)" style="font-family:'Roboto-Regular'; font-size:30px;">09.2011</text>
	<text transform="matrix(1 0 0 1 257.6843 888.0092)" style="font-family:'Roboto-Regular'; font-size:30px;">10.2011</text>
	<text transform="matrix(1 0 0 1 257.6843 926.5588)" style="font-family:'Roboto-Regular'; font-size:30px;">11.2011</text>
	<text transform="matrix(1 0 0 1 257.6846 964.8195)" style="font-family:'Roboto-Regular'; font-size:30px;">12.2011</text>
	<text transform="matrix(1 0 0 1 258.6548 1004.6668)" style="font-family:'Roboto-Regular'; font-size:30px;">01.2012</text>
	<text transform="matrix(1 0 0 1 258.6547 1042.9275)" style="font-family:'Roboto-Regular'; font-size:30px;">02.2012</text>
	<text transform="matrix(1 0 0 1 258.6547 1080.8748)" style="font-family:'Roboto-Regular'; font-size:30px;">03.2012</text>
	<text transform="matrix(1 0 0 1 258.6545 1119.1355)" style="font-family:'Roboto-Regular'; font-size:30px;">04.2012</text>
	<text transform="matrix(1 0 0 1 258.6544 1157.6851)" style="font-family:'Roboto-Regular'; font-size:30px;">05.2012</text>
	<text transform="matrix(1 0 0 1 258.6547 1195.9458)" style="font-family:'Roboto-Regular'; font-size:30px;">06.2012</text>
	<text transform="matrix(1 0 0 1 258.2216 1234.1658)" style="font-family:'Roboto-Regular'; font-size:30px;">07.2012</text>
	<text transform="matrix(1 0 0 1 258.2215 1272.4265)" style="font-family:'Roboto-Regular'; font-size:30px;">08.2012</text>
	<text transform="matrix(1 0 0 1 258.2215 1310.3738)" style="font-family:'Roboto-Regular'; font-size:30px;">09.2012</text>
	<text transform="matrix(1 0 0 1 258.2213 1348.6344)" style="font-family:'Roboto-Regular'; font-size:30px;">10.2012</text>
	<text transform="matrix(1 0 0 1 258.2213 1387.1841)" style="font-family:'Roboto-Regular'; font-size:30px;">11.2012</text>
	<text transform="matrix(1 0 0 1 258.2216 1425.4447)" style="font-family:'Roboto-Regular'; font-size:30px;">12.2012</text>
	<text transform="matrix(1 0 0 1 258.4382 1464.7306)" style="font-family:'Roboto-Regular'; font-size:30px;">01.2013</text>
	<text transform="matrix(1 0 0 1 258.438 1502.9912)" style="font-family:'Roboto-Regular'; font-size:30px;">02.2013</text>
	<text transform="matrix(1 0 0 1 258.438 1540.9385)" style="font-family:'Roboto-Regular'; font-size:30px;">03.2013</text>
	<text transform="matrix(1 0 0 1 258.4379 1579.1992)" style="font-family:'Roboto-Regular'; font-size:30px;">04.2013</text>
	<text transform="matrix(1 0 0 1 258.4378 1617.7488)" style="font-family:'Roboto-Regular'; font-size:30px;">05.2013</text>
	<text transform="matrix(1 0 0 1 258.4381 1656.0095)" style="font-family:'Roboto-Regular'; font-size:30px;">06.2013</text>
	<text transform="matrix(1 0 0 1 258.005 1694.2295)" style="font-family:'Roboto-Regular'; font-size:30px;">07.2013</text>
	<text transform="matrix(1 0 0 1 258.0049 1732.4902)" style="font-family:'Roboto-Regular'; font-size:30px;">08.2013</text>
	<text transform="matrix(1 0 0 1 258.0049 1770.4375)" style="font-family:'Roboto-Regular'; font-size:30px;">09.2013</text>
	<text transform="matrix(1 0 0 1 258.0047 1808.6981)" style="font-family:'Roboto-Regular'; font-size:30px;">10.2013</text>
	<text transform="matrix(1 0 0 1 258.0046 1847.2478)" style="font-family:'Roboto-Regular'; font-size:30px;">11.2013</text>
	<text transform="matrix(1 0 0 1 258.0049 1885.5084)" style="font-family:'Roboto-Regular'; font-size:30px;">12.2013</text>
	<text transform="matrix(1 0 0 1 258.1232 1925.894)" style="font-family:'Roboto-Regular'; font-size:30px;">01.2014</text>
	<text transform="matrix(1 0 0 1 258.1231 1964.1548)" style="font-family:'Roboto-Regular'; font-size:30px;">02.2014</text>
	<text transform="matrix(1 0 0 1 258.1231 2002.1021)" style="font-family:'Roboto-Regular'; font-size:30px;">03.2014</text>
	<text transform="matrix(1 0 0 1 258.1229 2040.3627)" style="font-family:'Roboto-Regular'; font-size:30px;">04.2014</text>
	<text transform="matrix(1 0 0 1 258.1229 2078.9124)" style="font-family:'Roboto-Regular'; font-size:30px;">05.2014</text>
	<text transform="matrix(1 0 0 1 258.1232 2117.1729)" style="font-family:'Roboto-Regular'; font-size:30px;">06.2014</text>
	<text transform="matrix(1 0 0 1 257.6901 2155.3928)" style="font-family:'Roboto-Regular'; font-size:30px;">07.2014</text>
	<text transform="matrix(1 0 0 1 257.6899 2193.6536)" style="font-family:'Roboto-Regular'; font-size:30px;">08.2014</text>
	<text transform="matrix(1 0 0 1 257.6899 2231.6008)" style="font-family:'Roboto-Regular'; font-size:30px;">09.2014</text>
	<text transform="matrix(1 0 0 1 257.6898 2269.8616)" style="font-family:'Roboto-Regular'; font-size:30px;">10.2014</text>
	<text transform="matrix(1 0 0 1 257.6897 2308.4111)" style="font-family:'Roboto-Regular'; font-size:30px;">11.2014</text>
	<text transform="matrix(1 0 0 1 257.69 2346.6719)" style="font-family:'Roboto-Regular'; font-size:30px;">12.2014</text>
	<text transform="matrix(1 0 0 1 257.9066 2385.9578)" style="font-family:'Roboto-Regular'; font-size:30px;">01.2015</text>
	<text transform="matrix(1 0 0 1 257.9065 2424.2185)" style="font-family:'Roboto-Regular'; font-size:30px;">02.2015</text>
	<text transform="matrix(1 0 0 1 257.9065 2462.1658)" style="font-family:'Roboto-Regular'; font-size:30px;">03.2015</text>
	<text transform="matrix(1 0 0 1 257.9063 2500.4263)" style="font-family:'Roboto-Regular'; font-size:30px;">04.2015</text>
	<text transform="matrix(1 0 0 1 257.9063 2538.9761)" style="font-family:'Roboto-Regular'; font-size:30px;">05.2015</text>
	<text transform="matrix(1 0 0 1 257.9066 2577.2366)" style="font-family:'Roboto-Regular'; font-size:30px;">06.2015</text>
	<text transform="matrix(1 0 0 1 257.4734 2615.4568)" style="font-family:'Roboto-Regular'; font-size:30px;">07.2015</text>
	<text transform="matrix(1 0 0 1 257.4733 2653.7173)" style="font-family:'Roboto-Regular'; font-size:30px;">08.2015</text>
	<text transform="matrix(1 0 0 1 257.4733 2691.6646)" style="font-family:'Roboto-Regular'; font-size:30px;">09.2015</text>
	<text transform="matrix(1 0 0 1 257.4731 2729.9253)" style="font-family:'Roboto-Regular'; font-size:30px;">10.2015</text>
	<text transform="matrix(1 0 0 1 257.4731 2768.4749)" style="font-family:'Roboto-Regular'; font-size:30px;">11.2015</text>
	<text transform="matrix(1 0 0 1 257.4734 2806.7356)" style="font-family:'Roboto-Regular'; font-size:30px;">12.2015</text>
	<text transform="matrix(1 0 0 1 258.4436 2846.583)" style="font-family:'Roboto-Regular'; font-size:30px;">01.2016</text>
	<text transform="matrix(1 0 0 1 258.4435 2884.8435)" style="font-family:'Roboto-Regular'; font-size:30px;">02.2016</text>
	<text transform="matrix(1 0 0 1 258.4435 2922.7908)" style="font-family:'Roboto-Regular'; font-size:30px;">03.2016</text>
	<text transform="matrix(1 0 0 1 258.4433 2961.0515)" style="font-family:'Roboto-Regular'; font-size:30px;">04.2016</text>
	<text transform="matrix(1 0 0 1 258.4432 2999.6011)" style="font-family:'Roboto-Regular'; font-size:30px;">05.2016</text>
	<text transform="matrix(1 0 0 1 258.4435 3037.8618)" style="font-family:'Roboto-Regular'; font-size:30px;">06.2016</text>
	<text transform="matrix(1 0 0 1 258.0104 3076.0818)" style="font-family:'Roboto-Regular'; font-size:30px;">07.2016</text>
	<text transform="matrix(1 0 0 1 258.0103 3114.3425)" style="font-family:'Roboto-Regular'; font-size:30px;">08.2016</text>
	<text transform="matrix(1 0 0 1 258.0103 3152.2898)" style="font-family:'Roboto-Regular'; font-size:30px;">09.2016</text>
	<text transform="matrix(1 0 0 1 258.0101 3190.5505)" style="font-family:'Roboto-Regular'; font-size:30px;">10.2016</text>
	<text transform="matrix(1 0 0 1 258.0101 3229.1001)" style="font-family:'Roboto-Regular'; font-size:30px;">11.2016</text>
	<text transform="matrix(1 0 0 1 258.0104 3267.3608)" style="font-family:'Roboto-Regular'; font-size:30px;">12.2016</text>
	<text transform="matrix(1 0 0 1 258.227 3306.6467)" style="font-family:'Roboto-Regular'; font-size:30px;">01.2017</text>
	<text transform="matrix(1 0 0 1 258.2269 3344.9072)" style="font-family:'Roboto-Regular'; font-size:30px;">02.2017</text>
	<text transform="matrix(1 0 0 1 258.2269 3382.8545)" style="font-family:'Roboto-Regular'; font-size:30px;">03.2017</text>
	<text transform="matrix(1 0 0 1 258.2267 3421.1152)" style="font-family:'Roboto-Regular'; font-size:30px;">04.2017</text>
	<text transform="matrix(1 0 0 1 258.2266 3459.6648)" style="font-family:'Roboto-Regular'; font-size:30px;">05.2017</text>
	<text transform="matrix(1 0 0 1 258.2269 3497.9255)" style="font-family:'Roboto-Regular'; font-size:30px;">06.2017</text>
	<text transform="matrix(1 0 0 1 257.7938 3536.1455)" style="font-family:'Roboto-Regular'; font-size:30px;">07.2017</text>
	<text transform="matrix(1 0 0 1 257.7937 3574.4063)" style="font-family:'Roboto-Regular'; font-size:30px;">08.2017</text>
	<text transform="matrix(1 0 0 1 257.7937 3612.3535)" style="font-family:'Roboto-Regular'; font-size:30px;">09.2017</text>
	<text transform="matrix(1 0 0 1 257.7935 3650.6143)" style="font-family:'Roboto-Regular'; font-size:30px;">10.2017</text>
	<text transform="matrix(1 0 0 1 257.7935 3689.1638)" style="font-family:'Roboto-Regular'; font-size:30px;">11.2017</text>
	<text transform="matrix(1 0 0 1 257.7938 3727.4246)" style="font-family:'Roboto-Regular'; font-size:30px;">12.2017</text>
	<text transform="matrix(1 0 0 1 257.7232 3769.1511)" style="font-family:'Roboto-Regular'; font-size:30px;">01.2018</text>
	<text transform="matrix(1 0 0 1 257.7231 3807.4119)" style="font-family:'Roboto-Regular'; font-size:30px;">02.2018</text>
	<text transform="matrix(1 0 0 1 257.7231 3845.3591)" style="font-family:'Roboto-Regular'; font-size:30px;">03.2018</text>
	<text transform="matrix(1 0 0 1 257.7229 3883.6199)" style="font-family:'Roboto-Regular'; font-size:30px;">04.2018</text>
	<text transform="matrix(1 0 0 1 257.7228 3922.1694)" style="font-family:'Roboto-Regular'; font-size:30px;">05.2018</text>
	<text transform="matrix(1 0 0 1 257.7231 3960.4302)" style="font-family:'Roboto-Regular'; font-size:30px;">06.2018</text>
	<text transform="matrix(1 0 0 1 257.29 3998.6501)" style="font-family:'Roboto-Regular'; font-size:30px;">07.2018</text>
	<text transform="matrix(1 0 0 1 257.2899 4036.9109)" style="font-family:'Roboto-Regular'; font-size:30px;">08.2018</text>
	<text transform="matrix(1 0 0 1 257.2899 4074.8582)" style="font-family:'Roboto-Regular'; font-size:30px;">09.2018</text>
	<text transform="matrix(1 0 0 1 257.2897 4113.1187)" style="font-family:'Roboto-Regular'; font-size:30px;">10.2018</text>
	<text transform="matrix(1 0 0 1 257.2897 4151.6685)" style="font-family:'Roboto-Regular'; font-size:30px;">11.2018</text>
	<text transform="matrix(1 0 0 1 257.29 4189.9287)" style="font-family:'Roboto-Regular'; font-size:30px;">12.2018</text>
	<text transform="matrix(1 0 0 1 257.5066 4229.2148)" style="font-family:'Roboto-Regular'; font-size:30px;">01.2019</text>
	<text transform="matrix(1 0 0 1 257.5065 4267.4756)" style="font-family:'Roboto-Regular'; font-size:30px;">02.2019</text>
	<text transform="matrix(1 0 0 1 257.5065 4305.4229)" style="font-family:'Roboto-Regular'; font-size:30px;">03.2019</text>
	<text transform="matrix(1 0 0 1 257.5063 4343.6836)" style="font-family:'Roboto-Regular'; font-size:30px;">04.2019</text>
	<text transform="matrix(1 0 0 1 257.5062 4382.2329)" style="font-family:'Roboto-Regular'; font-size:30px;">05.2019</text>
	<text transform="matrix(1 0 0 1 257.5065 4420.4937)" style="font-family:'Roboto-Regular'; font-size:30px;">06.2019</text>
	<text transform="matrix(1 0 0 1 257.0734 4458.7139)" style="font-family:'Roboto-Regular'; font-size:30px;">07.2019</text>
	<text transform="matrix(1 0 0 1 257.0733 4496.9746)" style="font-family:'Roboto-Regular'; font-size:30px;">08.2019</text>
	<text transform="matrix(1 0 0 1 257.0733 4534.9219)" style="font-family:'Roboto-Regular'; font-size:30px;">09.2019</text>
	<text transform="matrix(1 0 0 1 257.0731 4573.1821)" style="font-family:'Roboto-Regular'; font-size:30px;">10.2019</text>
	<text transform="matrix(1 0 0 1 257.0731 4611.7319)" style="font-family:'Roboto-Regular'; font-size:30px;">11.2019</text>
	<text transform="matrix(1 0 0 1 257.0734 4649.9927)" style="font-family:'Roboto-Regular'; font-size:30px;">12.2019</text>
	<text transform="matrix(1 0 0 1 258.0436 4689.8403)" style="font-family:'Roboto-Regular'; font-size:30px;">01.2020</text>
	<text transform="matrix(1 0 0 1 258.0435 4728.1011)" style="font-family:'Roboto-Regular'; font-size:30px;">02.2020</text>
	<text transform="matrix(1 0 0 1 258.0435 4766.0483)" style="font-family:'Roboto-Regular'; font-size:30px;">03.2020</text>
	<text transform="matrix(1 0 0 1 258.0433 4804.3086)" style="font-family:'Roboto-Regular'; font-size:30px;">04.2020</text>
	<text transform="matrix(1 0 0 1 258.0432 4842.8584)" style="font-family:'Roboto-Regular'; font-size:30px;">05.2020</text>
	<text transform="matrix(1 0 0 1 258.0435 4881.1187)" style="font-family:'Roboto-Regular'; font-size:30px;">06.2020</text>
	<g>
		<path style="fill:#DD277E;" d="M132.73,3517.75l4.9-9.97h8.26l-8.39,14.88l8.61,15.12h-8.34l-5.05-10.16l-5.05,10.16h-8.32
			l8.59-15.12l-8.37-14.88h8.24L132.73,3517.75z"/>
	</g>
	<g>
		<path style="fill:#DD277E;" d="M132.73,3631.75l4.9-9.97h8.26l-8.39,14.88l8.61,15.12h-8.34l-5.05-10.16l-5.05,10.16h-8.32
			l8.59-15.12l-8.37-14.88h8.24L132.73,3631.75z"/>
	</g>
	<g>
		<path style="fill:#DD277E;" d="M132.73,3939.75l4.9-9.97h8.26l-8.39,14.88l8.61,15.12h-8.34l-5.05-10.16l-5.05,10.16h-8.32
			l8.59-15.12l-8.37-14.88h8.24L132.73,3939.75z"/>
	</g>
	<g>
		<path style="fill:#DD277E;" d="M132.73,4016.75l4.9-9.97h8.26l-8.39,14.88l8.61,15.12h-8.34l-5.05-10.16l-5.05,10.16h-8.32
			l8.59-15.12l-8.37-14.88h8.24L132.73,4016.75z"/>
	</g>
	<g>
		<path style="fill:#DD277E;" d="M132.73,4169.75l4.9-9.97h8.26l-8.39,14.88l8.61,15.12h-8.34l-5.05-10.16l-5.05,10.16h-8.32
			l8.59-15.12l-8.37-14.88h8.24L132.73,4169.75z"/>
	</g>
	<g>
		<path style="fill:#DD277E;" d="M132.73,4399.75l4.9-9.97h8.26l-8.39,14.88l8.61,15.12h-8.34l-5.05-10.16l-5.05,10.16h-8.32
			l8.59-15.12l-8.37-14.88h8.24L132.73,4399.75z"/>
	</g>
	<g>
		<path style="fill:#DD277E;" d="M132.73,4553.75l4.9-9.97h8.26l-8.39,14.88l8.61,15.12h-8.34l-5.05-10.16l-5.05,10.16h-8.32
			l8.59-15.12l-8.37-14.88h8.24L132.73,4553.75z"/>
	</g>
	<g>
		<path style="fill:#DD277E;" d="M159.73,4553.75l4.9-9.97h8.26l-8.39,14.88l8.61,15.12h-8.34l-5.05-10.16l-5.05,10.16h-8.32
			l8.59-15.12l-8.37-14.88h8.24L159.73,4553.75z"/>
	</g>
	<g>
		<path style="fill:#DD277E;" d="M132.73,4629.75l4.9-9.97h8.26l-8.39,14.88l8.61,15.12h-8.34l-5.05-10.16l-5.05,10.16h-8.32
			l8.59-15.12l-8.37-14.88h8.24L132.73,4629.75z"/>
	</g>
	<g>
		<path style="fill:#DD277E;" d="M132.73,4745.75l4.9-9.97h8.26l-8.39,14.88l8.61,15.12h-8.34l-5.05-10.16l-5.05,10.16h-8.32
			l8.59-15.12l-8.37-14.88h8.24L132.73,4745.75z"/>
	</g>
	<g>
		<path style="fill:#DD277E;" d="M132.73,4783.75l4.9-9.97h8.26l-8.39,14.88l8.61,15.12h-8.34l-5.05-10.16l-5.05,10.16h-8.32
			l8.59-15.12l-8.37-14.88h8.24L132.73,4783.75z"/>
	</g>
	<g>
		<path style="fill:#DD277E;" d="M132.73,4821.75l4.9-9.97h8.26l-8.39,14.88l8.61,15.12h-8.34l-5.05-10.16l-5.05,10.16h-8.32
			l8.59-15.12l-8.37-14.88h8.24L132.73,4821.75z"/>
	</g>
	<g>
		<path style="fill:#DD277E;" d="M132.73,4860.75l4.9-9.97h8.26l-8.39,14.88l8.61,15.12h-8.34l-5.05-10.16l-5.05,10.16h-8.32
			l8.59-15.12l-8.37-14.88h8.24L132.73,4860.75z"/>
	</g>
</g>
<g id="Layer_4">
	<g>
		<path style="fill:#DD277E;" d="M132.93,254.75l4.9-9.97h8.26l-8.39,14.88l8.61,15.12h-8.34l-5.05-10.16l-5.05,10.16h-8.32
			l8.59-15.12l-8.37-14.88h8.24L132.93,254.75z"/>
	</g>
	<g>
		<path style="fill:#DD277E;" d="M132.73,484.75l4.9-9.97h8.26l-8.39,14.88l8.61,15.12h-8.34l-5.05-10.16l-5.05,10.16h-8.32
			l8.59-15.12l-8.37-14.88h8.24L132.73,484.75z"/>
	</g>
	<g>
		<path style="fill:#DD277E;" d="M132.73,523.75l4.9-9.97h8.26l-8.39,14.88l8.61,15.12h-8.34l-5.05-10.16l-5.05,10.16h-8.32
			l8.59-15.12l-8.37-14.88h8.24L132.73,523.75z"/>
	</g>
	<g>
		<path style="fill:#DD277E;" d="M132.73,677.75l4.9-9.97h8.26l-8.39,14.88l8.61,15.12h-8.34l-5.05-10.16l-5.05,10.16h-8.32
			l8.59-15.12l-8.37-14.88h8.24L132.73,677.75z"/>
	</g>
	<g>
		<path style="fill:#DD277E;" d="M132.73,1060.75l4.9-9.97h8.26l-8.39,14.88l8.61,15.12h-8.34l-5.05-10.16l-5.05,10.16h-8.32
			l8.59-15.12l-8.37-14.88h8.24L132.73,1060.75z"/>
	</g>
	<g>
		<path style="fill:#DD277E;" d="M132.73,1214.75l4.9-9.97h8.26l-8.39,14.88l8.61,15.12h-8.34l-5.05-10.16l-5.05,10.16h-8.32
			l8.59-15.12l-8.37-14.88h8.24L132.73,1214.75z"/>
	</g>
	<g>
		<path style="fill:#DD277E;" d="M132.73,1328.75l4.9-9.97h8.26l-8.39,14.88l8.61,15.12h-8.34l-5.05-10.16l-5.05,10.16h-8.32
			l8.59-15.12l-8.37-14.88h8.24L132.73,1328.75z"/>
	</g>
	<g>
		<path style="fill:#DD277E;" d="M132.73,1367.75l4.9-9.97h8.26l-8.39,14.88l8.61,15.12h-8.34l-5.05-10.16l-5.05,10.16h-8.32
			l8.59-15.12l-8.37-14.88h8.24L132.73,1367.75z"/>
	</g>
	<g>
		<path style="fill:#DD277E;" d="M132.73,1406.75l4.9-9.97h8.26l-8.39,14.88l8.61,15.12h-8.34l-5.05-10.16l-5.05,10.16h-8.32
			l8.59-15.12l-8.37-14.88h8.24L132.73,1406.75z"/>
	</g>
	<g>
		<path style="fill:#DD277E;" d="M132.73,1444.75l4.9-9.97h8.26l-8.39,14.88l8.61,15.12h-8.34l-5.05-10.16l-5.05,10.16h-8.32
			l8.59-15.12l-8.37-14.88h8.24L132.73,1444.75z"/>
	</g>
	<g>
		<path style="fill:#DD277E;" d="M132.73,1520.75l4.9-9.97h8.26l-8.39,14.88l8.61,15.12h-8.34l-5.05-10.16l-5.05,10.16h-8.32
			l8.59-15.12l-8.37-14.88h8.24L132.73,1520.75z"/>
	</g>
	<g>
		<path style="fill:#DD277E;" d="M132.73,1674.75l4.9-9.97h8.26l-8.39,14.88l8.61,15.12h-8.34l-5.05-10.16l-5.05,10.16h-8.32
			l8.59-15.12l-8.37-14.88h8.24L132.73,1674.75z"/>
	</g>
	<g>
		<path style="fill:#DD277E;" d="M132.73,1866.75l4.9-9.97h8.26l-8.39,14.88l8.61,15.12h-8.34l-5.05-10.16l-5.05,10.16h-8.32
			l8.59-15.12l-8.37-14.88h8.24L132.73,1866.75z"/>
	</g>
	<g>
		<path style="fill:#DD277E;" d="M132.73,2020.75l4.9-9.97h8.26l-8.39,14.88l8.61,15.12h-8.34l-5.05-10.16l-5.05,10.16h-8.32
			l8.59-15.12l-8.37-14.88h8.24L132.73,2020.75z"/>
	</g>
	<g>
		<path style="fill:#DD277E;" d="M132.73,2058.75l4.9-9.97h8.26l-8.39,14.88l8.61,15.12h-8.34l-5.05-10.16l-5.05,10.16h-8.32
			l8.59-15.12l-8.37-14.88h8.24L132.73,2058.75z"/>
	</g>
	<g>
		<path style="fill:#DD277E;" d="M132.73,2634.75l4.9-9.97h8.26l-8.39,14.88l8.61,15.12h-8.34l-5.05-10.16l-5.05,10.16h-8.32
			l8.59-15.12l-8.37-14.88h8.24L132.73,2634.75z"/>
	</g>
	<g>
		<path style="fill:#DD277E;" d="M132.73,2787.75l4.9-9.97h8.26l-8.39,14.88l8.61,15.12h-8.34l-5.05-10.16l-5.05,10.16h-8.32
			l8.59-15.12l-8.37-14.88h8.24L132.73,2787.75z"/>
	</g>
	<g>
		<path style="fill:#DD277E;" d="M132.73,2902.75l4.9-9.97h8.26l-8.39,14.88l8.61,15.12h-8.34l-5.05-10.16l-5.05,10.16h-8.32
			l8.59-15.12l-8.37-14.88h8.24L132.73,2902.75z"/>
	</g>
	<g>
		<path style="fill:#DD277E;" d="M132.73,2979.75l4.9-9.97h8.26l-8.39,14.88l8.61,15.12h-8.34l-5.05-10.16l-5.05,10.16h-8.32
			l8.59-15.12l-8.37-14.88h8.24L132.73,2979.75z"/>
	</g>
	<g>
		<path style="fill:#DD277E;" d="M132.73,3171.75l4.9-9.97h8.26l-8.39,14.88l8.61,15.12h-8.34l-5.05-10.16l-5.05,10.16h-8.32
			l8.59-15.12l-8.37-14.88h8.24L132.73,3171.75z"/>
	</g>
	<g>
		<path style="fill:#DD277E;" d="M132.73,3478.75l4.9-9.97h8.26l-8.39,14.88l8.61,15.12h-8.34l-5.05-10.16l-5.05,10.16h-8.32
			l8.59-15.12l-8.37-14.88h8.24L132.73,3478.75z"/>
	</g>
</g>
</svg>
