<?xml version="1.0" encoding="utf-8"?>
<!-- Generator: Adobe Illustrator 24.2.3, SVG Export Plug-In . SVG Version: 6.00 Build 0)  -->
<svg version="1.1" id="Ñëîé_1" xmlns="http://www.w3.org/2000/svg" xmlns:xlink="http://www.w3.org/1999/xlink" x="0px" y="0px"
	 viewBox="0 0 3000 2500" style="enable-background:new 0 0 3000 2500;" xml:space="preserve">
<g>
	<g>
		<circle style="fill:#004494;" cx="767.41" cy="1250" r="325"/>
		<g>
			<path style="fill:none;stroke:#004494;stroke-width:15;stroke-miterlimit:10;" d="M772.41,875c8.4,0,16.73,0.28,24.98,0.82"/>
			<path style="fill:none;stroke:#004494;stroke-width:15;stroke-miterlimit:10;stroke-dasharray:49.0497,49.0497;" d="
				M845.99,882.22c171.87,34.19,301.42,185.86,301.42,367.78c0,190.36-141.84,347.59-325.6,371.77"/>
			<path style="fill:none;stroke:#004494;stroke-width:15;stroke-miterlimit:10;" d="M797.4,1624.18
				c-8.26,0.54-16.59,0.82-24.98,0.82"/>
		</g>
		<polygon style="fill:#004494;" points="42.41,1250 482.41,1348.68 482.41,1151.32 		"/>
		<line style="fill:none;stroke:#004494;stroke-width:15;stroke-miterlimit:10;" x1="1502.41" y1="1250" x2="1202.41" y2="1250"/>
	</g>
	<g>
		<path style="fill:#F1F2F2;" d="M1557.59,2052.28V447.72c0-53.75,76.01-97.72,168.91-97.72h1062.19
			c92.9,0,168.91,43.98,168.91,97.72v1604.55c0,53.75-76.01,97.72-168.91,97.72H1726.49
			C1633.59,2150,1557.59,2106.02,1557.59,2052.28z"/>
		<path style="fill:none;stroke:#004494;stroke-width:15;stroke-miterlimit:10;stroke-dasharray:50.1177,50.1177;" d="
			M1557.59,2052.28V447.72c0-53.75,76.01-97.72,168.91-97.72h1062.19c92.9,0,168.91,43.98,168.91,97.72v1604.55
			c0,53.75-76.01,97.72-168.91,97.72H1726.49C1633.59,2150,1557.59,2106.02,1557.59,2052.28z"/>
	</g>
</g>
</svg>
