<?xml version="1.0" encoding="utf-8"?>
<!-- Generator: Adobe Illustrator 24.2.3, SVG Export Plug-In . SVG Version: 6.00 Build 0)  -->
<svg version="1.1" xmlns="http://www.w3.org/2000/svg" xmlns:xlink="http://www.w3.org/1999/xlink" x="0px" y="0px"
	 viewBox="0 0 1680 2420" style="enable-background:new 0 0 1680 2420;" xml:space="preserve">
<g id="Layer_1">
	<g>
		<rect x="382.08" y="244.3" style="fill:none;stroke:#000000;stroke-miterlimit:10;" width="1185.19" height="2107.01"/>
		<line style="fill:none;stroke:#000000;stroke-miterlimit:10;" x1="382.08" y1="2250.98" x2="1567.27" y2="2250.98"/>
		<line style="fill:none;stroke:#000000;stroke-miterlimit:10;" x1="382.08" y1="2150.64" x2="1567.27" y2="2150.64"/>
		<line style="fill:none;stroke:#000000;stroke-miterlimit:10;" x1="382.08" y1="2050.31" x2="1567.27" y2="2050.31"/>
		<line style="fill:none;stroke:#000000;stroke-miterlimit:10;" x1="382.08" y1="1949.97" x2="1567.27" y2="1949.97"/>
		<line style="fill:none;stroke:#000000;stroke-miterlimit:10;" x1="382.08" y1="1849.64" x2="1567.27" y2="1849.64"/>
		<line style="fill:none;stroke:#000000;stroke-miterlimit:10;" x1="382.08" y1="1749.31" x2="1567.27" y2="1749.31"/>
		<line style="fill:none;stroke:#000000;stroke-miterlimit:10;" x1="382.08" y1="1648.97" x2="1567.27" y2="1648.97"/>
		<line style="fill:none;stroke:#000000;stroke-miterlimit:10;" x1="382.08" y1="1548.64" x2="1567.27" y2="1548.64"/>
		<line style="fill:none;stroke:#000000;stroke-miterlimit:10;" x1="382.08" y1="1448.31" x2="1567.27" y2="1448.31"/>
		<line style="fill:none;stroke:#000000;stroke-miterlimit:10;" x1="382.08" y1="1347.97" x2="1567.27" y2="1347.97"/>
		<line style="fill:none;stroke:#000000;stroke-miterlimit:10;" x1="382.08" y1="1247.64" x2="1567.27" y2="1247.64"/>
		<line style="fill:none;stroke:#000000;stroke-miterlimit:10;" x1="382.08" y1="1147.31" x2="1567.27" y2="1147.31"/>
		<line style="fill:none;stroke:#000000;stroke-miterlimit:10;" x1="382.08" y1="1046.97" x2="1567.27" y2="1046.97"/>
		<line style="fill:none;stroke:#000000;stroke-miterlimit:10;" x1="382.08" y1="946.64" x2="1567.27" y2="946.64"/>
		<line style="fill:none;stroke:#000000;stroke-miterlimit:10;" x1="382.08" y1="846.3" x2="1567.27" y2="846.3"/>
		<line style="fill:none;stroke:#000000;stroke-miterlimit:10;" x1="382.08" y1="745.97" x2="1567.27" y2="745.97"/>
		<line style="fill:none;stroke:#000000;stroke-miterlimit:10;" x1="382.08" y1="645.64" x2="1567.27" y2="645.64"/>
		<line style="fill:none;stroke:#000000;stroke-miterlimit:10;" x1="382.08" y1="545.3" x2="1567.27" y2="545.3"/>
		<line style="fill:none;stroke:#000000;stroke-miterlimit:10;" x1="382.08" y1="444.97" x2="1567.27" y2="444.97"/>
		<line style="fill:none;stroke:#000000;stroke-miterlimit:10;" x1="382.08" y1="344.64" x2="1567.27" y2="344.64"/>
		<line style="fill:none;stroke:#000000;stroke-miterlimit:10;" x1="1369.74" y1="244.3" x2="1369.74" y2="2351.31"/>
		<line style="fill:none;stroke:#000000;stroke-miterlimit:10;" x1="1172.21" y1="244.3" x2="1172.21" y2="2351.31"/>
		<line style="fill:none;stroke:#000000;stroke-miterlimit:10;" x1="974.68" y1="244.3" x2="974.68" y2="2351.31"/>
		<line style="fill:none;stroke:#000000;stroke-miterlimit:10;" x1="777.14" y1="244.3" x2="777.14" y2="2351.31"/>
		<line style="fill:none;stroke:#000000;stroke-miterlimit:10;" x1="579.61" y1="244.3" x2="579.61" y2="2351.31"/>
	</g>
</g>
<g id="Layer_2">
	<g>
		<path style="fill:none;stroke:#000000;stroke-width:50;stroke-miterlimit:10;" d="M1514.37,2320.31H433.03l1,0
			c-77.45,0-79-37.92-79-51.09l0,0c0-12.52,2.78-50.43,80.23-50.43h1079.81l1,0c77.45,0,78-37.92,78-51.09l0,0
			c0-12.52-2.78-50.43-80.23-50.43H434.03l0.13,0c-77.45,0-79-37.92-79-51.09l0,0c0-12.52,2.78-50.43,80.23-50.43H1516.2l-1,0
			c77.45,0,79-37.92,79-51.09l0,0c0-12.52-2.78-50.43-80.23-50.43H434.15v0c-77.45,0-79-37.92-79-51.09l0,0
			c0-12.52,2.78-50.43,80.23-50.43H1515.2v0c77.45,0,79-37.92,79-51.09l0,0c0-12.52-2.78-50.43-80.23-50.43H434.15v0
			c-77.45,0-79-37.92-79-51.09l0,0c0-12.52,2.78-50.43,80.23-50.43H1515.2v0c77.45,0,79-37.92,79-51.09l0,0
			c0-12.52-2.78-50.43-80.23-50.43H434.15v0c-77.45,0-79-37.92-79-51.09l0,0c0-12.52,2.78-50.43,80.23-50.43H1515.2l1,0
			c77.45,0,78-37.92,78-51.09l0,0c0-12.52-2.78-50.43-80.23-50.43H434.15v0c-77.45,0-79-37.92-79-51.09l0,0
			c0-12.52,2.78-50.43,80.23-50.43H1516.2l-1,0c77.45,0,79-37.92,79-51.09l0,0c0-12.52-2.78-50.43-80.23-50.43H434.15l-1,0
			c-77.45,0-78-37.92-78-51.09l0,0c0-12.52,2.78-50.43,80.23-50.43H1515.2l1,0c77.45,0,78-37.92,78-51.09l0,0
			c0-12.52-2.78-50.43-80.23-50.43H434.15v0c-77.45,0-79-37.92-79-51.09l0,0c0-12.52,2.78-50.43,80.23-50.43H1516.2l-1,0
			c77.45,0,79-37.92,79-51.09l0,0c0-12.52-2.78-50.43-80.23-50.43H433.15l1,0c-77.45,0-79-37.92-79-51.09l0,0
			c0-12.52,2.78-50.43,80.23-50.43H1516.2l-1,0c77.45,0,79-37.92,79-51.09l0,0c0-12.52-2.78-50.43-80.23-50.43H433.15l1,0
			c-77.45,0-79-37.92-79-51.09l0,0c0-12.52,2.78-50.43,80.23-50.43H1515.2l1,0c77.45,0,78-37.92,78-51.09l0,0
			c0-12.52-2.78-50.43-80.23-50.43H435.15"/>
		<path style="fill:none;stroke:#FFD500;stroke-width:46;stroke-miterlimit:10;" d="M1514.37,2320.31H433.03l1,0
			c-77.45,0-79-37.92-79-51.09l0,0c0-12.52,2.78-50.43,80.23-50.43h1079.81l1,0c77.45,0,78-37.92,78-51.09l0,0
			c0-12.52-2.78-50.43-80.23-50.43H434.03l0.13,0c-77.45,0-79-37.92-79-51.09l0,0c0-12.52,2.78-50.43,80.23-50.43H1516.2l-1,0
			c77.45,0,79-37.92,79-51.09l0,0c0-12.52-2.78-50.43-80.23-50.43H434.15v0c-77.45,0-79-37.92-79-51.09l0,0
			c0-12.52,2.78-50.43,80.23-50.43H1515.2v0c77.45,0,79-37.92,79-51.09l0,0c0-12.52-2.78-50.43-80.23-50.43H434.15v0
			c-77.45,0-79-37.92-79-51.09l0,0c0-12.52,2.78-50.43,80.23-50.43H1515.2v0c77.45,0,79-37.92,79-51.09l0,0
			c0-12.52-2.78-50.43-80.23-50.43H434.15v0c-77.45,0-79-37.92-79-51.09l0,0c0-12.52,2.78-50.43,80.23-50.43H1515.2l1,0
			c77.45,0,78-37.92,78-51.09l0,0c0-12.52-2.78-50.43-80.23-50.43H434.15v0c-77.45,0-79-37.92-79-51.09l0,0
			c0-12.52,2.78-50.43,80.23-50.43H1516.2l-1,0c77.45,0,79-37.92,79-51.09l0,0c0-12.52-2.78-50.43-80.23-50.43H434.15l-1,0
			c-77.45,0-78-37.92-78-51.09l0,0c0-12.52,2.78-50.43,80.23-50.43H1515.2l1,0c77.45,0,78-37.92,78-51.09l0,0
			c0-12.52-2.78-50.43-80.23-50.43H434.15v0c-77.45,0-79-37.92-79-51.09l0,0c0-12.52,2.78-50.43,80.23-50.43H1516.2l-1,0
			c77.45,0,79-37.92,79-51.09l0,0c0-12.52-2.78-50.43-80.23-50.43H433.15l1,0c-77.45,0-79-37.92-79-51.09l0,0
			c0-12.52,2.78-50.43,80.23-50.43H1516.2l-1,0c77.45,0,79-37.92,79-51.09l0,0c0-12.52-2.78-50.43-80.23-50.43H433.15l1,0
			c-77.45,0-79-37.92-79-51.09l0,0c0-12.52,2.78-50.43,80.23-50.43H1515.2l1,0c77.45,0,78-37.92,78-51.09l0,0
			c0-12.52-2.78-50.43-80.23-50.43H435.15"/>
		<path style="fill:none;stroke:#000000;stroke-width:42;stroke-miterlimit:10;" d="M1514.37,2320.31H433.03l1,0
			c-77.45,0-79-37.92-79-51.09l0,0c0-12.52,2.78-50.43,80.23-50.43h1079.81l1,0c77.45,0,78-37.92,78-51.09l0,0
			c0-12.52-2.78-50.43-80.23-50.43H434.03l0.13,0c-77.45,0-79-37.92-79-51.09l0,0c0-12.52,2.78-50.43,80.23-50.43H1516.2l-1,0
			c77.45,0,79-37.92,79-51.09l0,0c0-12.52-2.78-50.43-80.23-50.43H434.15v0c-77.45,0-79-37.92-79-51.09l0,0
			c0-12.52,2.78-50.43,80.23-50.43H1515.2v0c77.45,0,79-37.92,79-51.09l0,0c0-12.52-2.78-50.43-80.23-50.43H434.15v0
			c-77.45,0-79-37.92-79-51.09l0,0c0-12.52,2.78-50.43,80.23-50.43H1515.2v0c77.45,0,79-37.92,79-51.09l0,0
			c0-12.52-2.78-50.43-80.23-50.43H434.15v0c-77.45,0-79-37.92-79-51.09l0,0c0-12.52,2.78-50.43,80.23-50.43H1515.2l1,0
			c77.45,0,78-37.92,78-51.09l0,0c0-12.52-2.78-50.43-80.23-50.43H434.15v0c-77.45,0-79-37.92-79-51.09l0,0
			c0-12.52,2.78-50.43,80.23-50.43H1516.2l-1,0c77.45,0,79-37.92,79-51.09l0,0c0-12.52-2.78-50.43-80.23-50.43H434.15l-1,0
			c-77.45,0-78-37.92-78-51.09l0,0c0-12.52,2.78-50.43,80.23-50.43H1515.2l1,0c77.45,0,78-37.92,78-51.09l0,0
			c0-12.52-2.78-50.43-80.23-50.43H434.15v0c-77.45,0-79-37.92-79-51.09l0,0c0-12.52,2.78-50.43,80.23-50.43H1516.2l-1,0
			c77.45,0,79-37.92,79-51.09l0,0c0-12.52-2.78-50.43-80.23-50.43H433.15l1,0c-77.45,0-79-37.92-79-51.09l0,0
			c0-12.52,2.78-50.43,80.23-50.43H1516.2l-1,0c77.45,0,79-37.92,79-51.09l0,0c0-12.52-2.78-50.43-80.23-50.43H433.15l1,0
			c-77.45,0-79-37.92-79-51.09l0,0c0-12.52,2.78-50.43,80.23-50.43H1515.2l1,0c77.45,0,78-37.92,78-51.09l0,0
			c0-12.52-2.78-50.43-80.23-50.43H435.15"/>
		<path style="fill:none;stroke:#FFFFFF;stroke-width:4;stroke-miterlimit:10;" d="M1514.37,2320.31H433.03l1,0
			c-77.45,0-79-37.92-79-51.09l0,0c0-12.52,2.78-50.43,80.23-50.43h1079.81l1,0c77.45,0,78-37.92,78-51.09l0,0
			c0-12.52-2.78-50.43-80.23-50.43H434.03l0.13,0c-77.45,0-79-37.92-79-51.09l0,0c0-12.52,2.78-50.43,80.23-50.43H1516.2l-1,0
			c77.45,0,79-37.92,79-51.09l0,0c0-12.52-2.78-50.43-80.23-50.43H434.15v0c-77.45,0-79-37.92-79-51.09l0,0
			c0-12.52,2.78-50.43,80.23-50.43H1515.2v0c77.45,0,79-37.92,79-51.09l0,0c0-12.52-2.78-50.43-80.23-50.43H434.15v0
			c-77.45,0-79-37.92-79-51.09l0,0c0-12.52,2.78-50.43,80.23-50.43H1515.2v0c77.45,0,79-37.92,79-51.09l0,0
			c0-12.52-2.78-50.43-80.23-50.43H434.15v0c-77.45,0-79-37.92-79-51.09l0,0c0-12.52,2.78-50.43,80.23-50.43H1515.2l1,0
			c77.45,0,78-37.92,78-51.09l0,0c0-12.52-2.78-50.43-80.23-50.43H434.15v0c-77.45,0-79-37.92-79-51.09l0,0
			c0-12.52,2.78-50.43,80.23-50.43H1516.2l-1,0c77.45,0,79-37.92,79-51.09l0,0c0-12.52-2.78-50.43-80.23-50.43H434.15l-1,0
			c-77.45,0-78-37.92-78-51.09l0,0c0-12.52,2.78-50.43,80.23-50.43H1515.2l1,0c77.45,0,78-37.92,78-51.09l0,0
			c0-12.52-2.78-50.43-80.23-50.43H434.15v0c-77.45,0-79-37.92-79-51.09l0,0c0-12.52,2.78-50.43,80.23-50.43H1516.2l-1,0
			c77.45,0,79-37.92,79-51.09l0,0c0-12.52-2.78-50.43-80.23-50.43H433.15l1,0c-77.45,0-79-37.92-79-51.09l0,0
			c0-12.52,2.78-50.43,80.23-50.43H1516.2l-1,0c77.45,0,79-37.92,79-51.09l0,0c0-12.52-2.78-50.43-80.23-50.43H433.15l1,0
			c-77.45,0-79-37.92-79-51.09l0,0c0-12.52,2.78-50.43,80.23-50.43H1515.2l1,0c77.45,0,78-37.92,78-51.09l0,0
			c0-12.52-2.78-50.43-80.23-50.43H435.15"/>
	</g>
</g>
<g id="Layer_3">
	<text transform="matrix(1 0 0 1 468.1984 111.4641)" style="font-family:'Roboto-Regular'; font-size:50px;">1</text>
	<text transform="matrix(1 0 0 1 661.2844 111.4641)" style="font-family:'Roboto-Regular'; font-size:50px;">2</text>
	<text transform="matrix(1 0 0 1 860.3286 111.464)" style="font-family:'Roboto-Regular'; font-size:50px;">3</text>
	<text transform="matrix(1 0 0 1 1061.2057 111.464)" style="font-family:'Roboto-Regular'; font-size:50px;">4</text>
	<text transform="matrix(1 0 0 1 1261.1985 111.4639)" style="font-family:'Roboto-Regular'; font-size:50px;">5</text>
	<text transform="matrix(1 0 0 1 1451.3857 111.4643)" style="font-family:'Roboto-Regular'; font-size:50px;">6</text>
	<text transform="matrix(1 0 0 1 454.1603 171.4641)" style="font-family:'Roboto-Regular'; font-size:50px;">12</text>
	<text transform="matrix(1 0 0 1 647.2463 171.4641)" style="font-family:'Roboto-Regular'; font-size:50px;">11</text>
	<text transform="matrix(1 0 0 1 846.2905 171.464)" style="font-family:'Roboto-Regular'; font-size:50px;">10</text>
	<text transform="matrix(1 0 0 1 1061.2057 171.464)" style="font-family:'Roboto-Regular'; font-size:50px;">9</text>
	<text transform="matrix(1 0 0 1 1261.1985 171.4639)" style="font-family:'Roboto-Regular'; font-size:50px;">8</text>
	<text transform="matrix(1 0 0 1 1451.3857 171.4644)" style="font-family:'Roboto-Regular'; font-size:50px;">7</text>
	<text transform="matrix(1 0 0 1 85.8016 308.9213)" style="font-family:'Roboto-Regular'; font-size:50px;">S1 2010</text>
	<text transform="matrix(1 0 0 1 85.8016 409.9211)" style="font-family:'Roboto-Regular'; font-size:50px;">S2 2010</text>
	<text transform="matrix(1 0 0 1 85.8016 509.9211)" style="font-family:'Roboto-Regular'; font-size:50px;">S1 2011</text>
	<text transform="matrix(1 0 0 1 85.8016 609.9211)" style="font-family:'Roboto-Regular'; font-size:50px;">S2 2011</text>
	<text transform="matrix(1 0 0 1 85.8016 709.9211)" style="font-family:'Roboto-Regular'; font-size:50px;">S1 2012</text>
	<text transform="matrix(1 0 0 1 85.8016 810.9211)" style="font-family:'Roboto-Regular'; font-size:50px;">S2 2012</text>
	<text transform="matrix(1 0 0 1 85.8016 910.9211)" style="font-family:'Roboto-Regular'; font-size:50px;">S1 2013</text>
	<text transform="matrix(1 0 0 1 85.8016 1010.9211)" style="font-family:'Roboto-Regular'; font-size:50px;">S2 2013</text>
	<text transform="matrix(1 0 0 1 85.8016 1111.9211)" style="font-family:'Roboto-Regular'; font-size:50px;">S1 2014</text>
	<text transform="matrix(1 0 0 1 85.8015 1211.9214)" style="font-family:'Roboto-Regular'; font-size:50px;">S2 2014</text>
	<text transform="matrix(1 0 0 1 85.8013 1311.9209)" style="font-family:'Roboto-Regular'; font-size:50px;">S1 2015</text>
	<text transform="matrix(1 0 0 1 85.8011 1412.9216)" style="font-family:'Roboto-Regular'; font-size:50px;">S2 2015</text>
	<text transform="matrix(1 0 0 1 85.8011 1512.9216)" style="font-family:'Roboto-Regular'; font-size:50px;">S1 2016</text>
	<text transform="matrix(1 0 0 1 85.8011 1612.9216)" style="font-family:'Roboto-Regular'; font-size:50px;">S2 2016</text>
	<text transform="matrix(1 0 0 1 85.8011 1712.9211)" style="font-family:'Roboto-Regular'; font-size:50px;">S1 2017</text>
	<text transform="matrix(1 0 0 1 85.8011 1813.9215)" style="font-family:'Roboto-Regular'; font-size:50px;">S2 2017</text>
	<text transform="matrix(1 0 0 1 85.8011 1913.9211)" style="font-family:'Roboto-Regular'; font-size:50px;">S1 2018</text>
	<text transform="matrix(1 0 0 1 85.8011 2014.9211)" style="font-family:'Roboto-Regular'; font-size:50px;">S2 2018</text>
	<text transform="matrix(1 0 0 1 85.8011 2114.9211)" style="font-family:'Roboto-Regular'; font-size:50px;">S1 2019</text>
	<text transform="matrix(1 0 0 1 85.8015 2214.9211)" style="font-family:'Roboto-Regular'; font-size:50px;">S2 2019</text>
	<text transform="matrix(1 0 0 1 85.8015 2315.9209)" style="font-family:'Roboto-Regular'; font-size:50px;">S1 2020</text>
</g>
<g id="Layer_4">
	<g>
		<path style="fill:#DD277E;" d="M1465.41,234.28l4.9-9.97h8.26l-8.39,14.88l8.61,15.12h-8.34l-5.05-10.16l-5.05,10.16h-8.32
			l8.59-15.12l-8.37-14.88h8.24L1465.41,234.28z"/>
	</g>
	<g>
		<path style="fill:#DD277E;" d="M482.23,335.28l4.9-9.97h8.26l-8.39,14.88l8.61,15.12h-8.34l-5.05-10.16l-5.05,10.16h-8.32
			l8.59-15.12l-8.37-14.88h8.24L482.23,335.28z"/>
	</g>
	<g>
		<path style="fill:#DD277E;" d="M482.23,437.28l4.9-9.97h8.26l-8.39,14.88l8.61,15.12h-8.34l-5.05-10.16l-5.05,10.16h-8.32
			l8.59-15.12l-8.37-14.88h8.24L482.23,437.28z"/>
	</g>
	<g>
		<path style="fill:#DD277E;" d="M1275.23,437.28l4.9-9.97h8.26l-8.39,14.88l8.61,15.12h-8.34l-5.05-10.16l-5.05,10.16h-8.32
			l8.59-15.12l-8.37-14.88h8.24L1275.23,437.28z"/>
	</g>
	<g>
		<path style="fill:#DD277E;" d="M874.36,641.28l4.9-9.97h8.26l-8.39,14.88l8.61,15.12h-8.34l-5.05-10.16l-5.05,10.16h-8.32
			l8.59-15.12l-8.37-14.88h8.24L874.36,641.28z"/>
	</g>
	<g>
		<path style="fill:#DD277E;" d="M1465.41,742.28l4.9-9.97h8.26l-8.39,14.88l8.61,15.12h-8.34l-5.05-10.16l-5.05,10.16h-8.32
			l8.59-15.12l-8.37-14.88h8.24L1465.41,742.28z"/>
	</g>
	<g>
		<path style="fill:#DD277E;" d="M874.36,742.28l4.9-9.97h8.26l-8.39,14.88l8.61,15.12h-8.34l-5.05-10.16l-5.05,10.16h-8.32
			l8.59-15.12l-8.37-14.88h8.24L874.36,742.28z"/>
	</g>
	<g>
		<path style="fill:#DD277E;" d="M675.31,742.28l4.9-9.97h8.26l-8.39,14.88l8.61,15.12h-8.34l-5.05-10.16l-5.05,10.16h-8.32
			l8.59-15.12l-8.37-14.88h8.24L675.31,742.28z"/>
	</g>
	<g>
		<path style="fill:#DD277E;" d="M482.23,742.28l4.9-9.97h8.26l-8.39,14.88l8.61,15.12h-8.34l-5.05-10.16l-5.05,10.16h-8.32
			l8.59-15.12l-8.37-14.88h8.24L482.23,742.28z"/>
	</g>
	<g>
		<path style="fill:#DD277E;" d="M482.23,844.28l4.9-9.97h8.26l-8.39,14.88l8.61,15.12h-8.34l-5.05-10.16l-5.05,10.16h-8.32
			l8.59-15.12l-8.37-14.88h8.24L482.23,844.28z"/>
	</g>
	<g>
		<path style="fill:#DD277E;" d="M874.36,844.28l4.9-9.97h8.26l-8.39,14.88l8.61,15.12h-8.34l-5.05-10.16l-5.05,10.16h-8.32
			l8.59-15.12l-8.37-14.88h8.24L874.36,844.28z"/>
	</g>
	<g>
		<path style="fill:#DD277E;" d="M1465.41,945.28l4.9-9.97h8.26l-8.39,14.88l8.61,15.12h-8.34l-5.05-10.16l-5.05,10.16h-8.32
			l8.59-15.12l-8.37-14.88h8.24L1465.41,945.28z"/>
	</g>
	<g>
		<path style="fill:#DD277E;" d="M482.23,945.28l4.9-9.97h8.26l-8.39,14.88l8.61,15.12h-8.34l-5.05-10.16l-5.05,10.16h-8.32
			l8.59-15.12l-8.37-14.88h8.24L482.23,945.28z"/>
	</g>
	<g>
		<path style="fill:#DD277E;" d="M1075.23,1047.28l4.9-9.97h8.26l-8.39,14.88l8.61,15.12h-8.34l-5.05-10.16l-5.05,10.16h-8.32
			l8.59-15.12l-8.37-14.88h8.24L1075.23,1047.28z"/>
	</g>
	<g>
		<path style="fill:#DD277E;" d="M1275.23,1047.28l4.9-9.97h8.26l-8.39,14.88l8.61,15.12h-8.34l-5.05-10.16l-5.05,10.16h-8.32
			l8.59-15.12l-8.37-14.88h8.24L1275.23,1047.28z"/>
	</g>
	<g>
		<path style="fill:#DD277E;" d="M1275.23,1351.28l4.9-9.97h8.26l-8.39,14.88l8.61,15.12h-8.34l-5.05-10.16l-5.05,10.16h-8.32
			l8.59-15.12l-8.37-14.88h8.24L1275.23,1351.28z"/>
	</g>
	<g>
		<path style="fill:#DD277E;" d="M482.23,1351.28l4.9-9.97h8.26l-8.39,14.88l8.61,15.12h-8.34l-5.05-10.16l-5.05,10.16h-8.32
			l8.59-15.12l-8.37-14.88h8.24L482.23,1351.28z"/>
	</g>
	<g>
		<path style="fill:#DD277E;" d="M874.36,1453.28l4.9-9.97h8.26l-8.39,14.88l8.61,15.12h-8.34l-5.05-10.16l-5.05,10.16h-8.32
			l8.59-15.12l-8.37-14.88h8.24L874.36,1453.28z"/>
	</g>
	<g>
		<path style="fill:#DD277E;" d="M1275.23,1453.28l4.9-9.97h8.26l-8.39,14.88l8.61,15.12h-8.34l-5.05-10.16l-5.05,10.16h-8.32
			l8.59-15.12l-8.37-14.88h8.24L1275.23,1453.28z"/>
	</g>
	<g>
		<path style="fill:#DD277E;" d="M874.36,1554.28l4.9-9.97h8.26l-8.39,14.88l8.61,15.12h-8.34l-5.05-10.16l-5.05,10.16h-8.32
			l8.59-15.12l-8.37-14.88h8.24L874.36,1554.28z"/>
	</g>
	<g>
		<path style="fill:#DD277E;" d="M1465.41,1656.28l4.9-9.97h8.26l-8.39,14.88l8.61,15.12h-8.34l-5.05-10.16l-5.05,10.16h-8.32
			l8.59-15.12l-8.37-14.88h8.24L1465.41,1656.28z"/>
	</g>
	<g>
		<path style="fill:#DD277E;" d="M1465.41,1757.28l4.9-9.97h8.26l-8.39,14.88l8.61,15.12h-8.34l-5.05-10.16l-5.05,10.16h-8.32
			l8.59-15.12l-8.37-14.88h8.24L1465.41,1757.28z"/>
	</g>
	<g>
		<path style="fill:#DD277E;" d="M874.36,1757.28l4.9-9.97h8.26l-8.39,14.88l8.61,15.12h-8.34l-5.05-10.16l-5.05,10.16h-8.32
			l8.59-15.12l-8.37-14.88h8.24L874.36,1757.28z"/>
	</g>
	<g>
		<path style="fill:#DD277E;" d="M1465.41,1859.28l4.9-9.97h8.26l-8.39,14.88l8.61,15.12h-8.34l-5.05-10.16l-5.05,10.16h-8.32
			l8.59-15.12l-8.37-14.88h8.24L1465.41,1859.28z"/>
	</g>
	<g>
		<path style="fill:#DD277E;" d="M1275.41,1960.28l4.9-9.97h8.26l-8.39,14.88l8.61,15.12h-8.34l-5.05-10.16l-5.05,10.16h-8.32
			l8.59-15.12l-8.37-14.88h8.24L1275.41,1960.28z"/>
	</g>
	<g>
		<path style="fill:#DD277E;" d="M894.36,2163.28l4.9-9.97h8.26l-8.39,14.88l8.61,15.12h-8.34l-5.05-10.16l-5.05,10.16h-8.32
			l8.59-15.12l-8.37-14.88h8.24L894.36,2163.28z"/>
	</g>
	<g>
		<path style="fill:#DD277E;" d="M854.36,2163.28l4.9-9.97h8.26l-8.39,14.88l8.61,15.12h-8.34l-5.05-10.16l-5.05,10.16h-8.32
			l8.59-15.12l-8.37-14.88h8.24L854.36,2163.28z"/>
	</g>
	<g>
		<path style="fill:#DD277E;" d="M1465.23,2062.28l4.9-9.97h8.26l-8.39,14.88l8.61,15.12h-8.34l-5.05-10.16l-5.05,10.16h-8.32
			l8.59-15.12l-8.37-14.88h8.24L1465.23,2062.28z"/>
	</g>
	<g>
		<path style="fill:#DD277E;" d="M874.36,2264.28l4.9-9.97h8.26l-8.39,14.88l8.61,15.12h-8.34l-5.05-10.16l-5.05,10.16h-8.32
			l8.59-15.12l-8.37-14.88h8.24L874.36,2264.28z"/>
	</g>
	<g>
		<path style="fill:#DD277E;" d="M1075.23,2264.28l4.9-9.97h8.26l-8.39,14.88l8.61,15.12h-8.34l-5.05-10.16l-5.05,10.16h-8.32
			l8.59-15.12l-8.37-14.88h8.24L1075.23,2264.28z"/>
	</g>
	<g>
		<path style="fill:#DD277E;" d="M1275.23,2264.28l4.9-9.97h8.26l-8.39,14.88l8.61,15.12h-8.34l-5.05-10.16l-5.05,10.16h-8.32
			l8.59-15.12l-8.37-14.88h8.24L1275.23,2264.28z"/>
	</g>
	<g>
		<path style="fill:#DD277E;" d="M1465.11,2264.28l4.9-9.97h8.26l-8.39,14.88l8.61,15.12h-8.34l-5.05-10.16l-5.05,10.16h-8.32
			l8.59-15.12l-8.37-14.88h8.24L1465.11,2264.28z"/>
	</g>
	<g>
		<path style="fill:#DD277E;" d="M481.88,1960.28l4.9-9.97h8.26l-8.39,14.88l8.61,15.12h-8.34l-5.05-10.16l-5.05,10.16h-8.32
			l8.59-15.12l-8.37-14.88h8.24L481.88,1960.28z"/>
	</g>
	<g>
		<path style="fill:#DD277E;" d="M482.71,2163.28l4.9-9.97h8.26l-8.39,14.88l8.61,15.12h-8.34l-5.05-10.16l-5.05,10.16h-8.32
			l8.59-15.12l-8.37-14.88h8.24L482.71,2163.28z"/>
	</g>
</g>
</svg>
